%TF.GenerationSoftware,KiCad,Pcbnew,8.0.6*%
%TF.CreationDate,2024-11-20T20:55:38+11:00*%
%TF.ProjectId,clock-divider,636c6f63-6b2d-4646-9976-696465722e6b,1*%
%TF.SameCoordinates,Original*%
%TF.FileFunction,Soldermask,Bot*%
%TF.FilePolarity,Negative*%
%FSLAX46Y46*%
G04 Gerber Fmt 4.6, Leading zero omitted, Abs format (unit mm)*
G04 Created by KiCad (PCBNEW 8.0.6) date 2024-11-20 20:55:38*
%MOMM*%
%LPD*%
G01*
G04 APERTURE LIST*
G04 Aperture macros list*
%AMRoundRect*
0 Rectangle with rounded corners*
0 $1 Rounding radius*
0 $2 $3 $4 $5 $6 $7 $8 $9 X,Y pos of 4 corners*
0 Add a 4 corners polygon primitive as box body*
4,1,4,$2,$3,$4,$5,$6,$7,$8,$9,$2,$3,0*
0 Add four circle primitives for the rounded corners*
1,1,$1+$1,$2,$3*
1,1,$1+$1,$4,$5*
1,1,$1+$1,$6,$7*
1,1,$1+$1,$8,$9*
0 Add four rect primitives between the rounded corners*
20,1,$1+$1,$2,$3,$4,$5,0*
20,1,$1+$1,$4,$5,$6,$7,0*
20,1,$1+$1,$6,$7,$8,$9,0*
20,1,$1+$1,$8,$9,$2,$3,0*%
%AMFreePoly0*
4,1,6,1.000000,0.000000,0.500000,-0.750000,-0.500000,-0.750000,-0.500000,0.750000,0.500000,0.750000,1.000000,0.000000,1.000000,0.000000,$1*%
%AMFreePoly1*
4,1,6,0.500000,-0.750000,-0.650000,-0.750000,-0.150000,0.000000,-0.650000,0.750000,0.500000,0.750000,0.500000,-0.750000,0.500000,-0.750000,$1*%
G04 Aperture macros list end*
%ADD10R,1.600000X1.600000*%
%ADD11O,1.600000X1.600000*%
%ADD12RoundRect,0.250000X-0.550000X-0.550000X0.550000X-0.550000X0.550000X0.550000X-0.550000X0.550000X0*%
%ADD13C,1.600000*%
%ADD14R,1.500000X1.500000*%
%ADD15C,1.500000*%
%ADD16C,1.000000*%
%ADD17FreePoly0,0.000000*%
%ADD18FreePoly1,0.000000*%
%ADD19FreePoly0,270.000000*%
%ADD20FreePoly1,270.000000*%
G04 APERTURE END LIST*
D10*
%TO.C,U1*%
X67310000Y-76200000D03*
D11*
X67310000Y-78740000D03*
X67310000Y-81280000D03*
X67310000Y-83820000D03*
X67310000Y-86360000D03*
X67310000Y-88900000D03*
X67310000Y-91440000D03*
X67310000Y-93980000D03*
X74930000Y-93980000D03*
X74930000Y-91440000D03*
X74930000Y-88900000D03*
X74930000Y-86360000D03*
X74930000Y-83820000D03*
X74930000Y-81280000D03*
X74930000Y-78740000D03*
X74930000Y-76200000D03*
%TD*%
D12*
%TO.C,J2*%
X78740000Y-73660000D03*
%TD*%
%TO.C,J3*%
X63500000Y-76200000D03*
%TD*%
D13*
%TO.C,C3*%
X72350000Y-73025000D03*
X69850000Y-73025000D03*
%TD*%
%TO.C,R3*%
X63500000Y-93980000D03*
D11*
X63500000Y-96520000D03*
%TD*%
D14*
%TO.C,Q1*%
X78740000Y-96520000D03*
D15*
X78740000Y-93980000D03*
X78740000Y-91440000D03*
%TD*%
D12*
%TO.C,J1*%
X63500000Y-101600000D03*
%TD*%
D13*
%TO.C,R2*%
X73025000Y-101600000D03*
D11*
X70485000Y-101600000D03*
%TD*%
D13*
%TO.C,C1*%
X76200000Y-99060000D03*
X76200000Y-101560000D03*
%TD*%
D16*
%TO.C,Y1*%
X70485000Y-97790000D03*
X72385000Y-97790000D03*
X74295000Y-97790000D03*
%TD*%
D13*
%TO.C,R1*%
X67310000Y-99060000D03*
D11*
X67310000Y-101600000D03*
%TD*%
D12*
%TO.C,J4*%
X78740000Y-76200000D03*
%TD*%
D13*
%TO.C,C2*%
X78740000Y-99060000D03*
X78740000Y-101560000D03*
%TD*%
D17*
%TO.C,JP5*%
X77220000Y-81280000D03*
D18*
X78670000Y-81280000D03*
%TD*%
D19*
%TO.C,JP11*%
X77470000Y-87450000D03*
D20*
X77470000Y-88900000D03*
%TD*%
D17*
%TO.C,JP9*%
X69600000Y-78740000D03*
D18*
X71050000Y-78740000D03*
%TD*%
D17*
%TO.C,JP4*%
X69600000Y-88900000D03*
D18*
X71050000Y-88900000D03*
%TD*%
D17*
%TO.C,JP1*%
X69600000Y-91490000D03*
D18*
X71050000Y-91490000D03*
%TD*%
D17*
%TO.C,JP3*%
X69600000Y-83820000D03*
D18*
X71050000Y-83820000D03*
%TD*%
D17*
%TO.C,JP8*%
X69600000Y-76200000D03*
D18*
X71050000Y-76200000D03*
%TD*%
D17*
%TO.C,JP10*%
X69600000Y-81280000D03*
D18*
X71050000Y-81280000D03*
%TD*%
D17*
%TO.C,JP2*%
X69600000Y-86360000D03*
D18*
X71050000Y-86360000D03*
%TD*%
D17*
%TO.C,JP6*%
X77220000Y-83820000D03*
D18*
X78670000Y-83820000D03*
%TD*%
D17*
%TO.C,JP7*%
X77220000Y-78740000D03*
D18*
X78670000Y-78740000D03*
%TD*%
M02*
