%TF.GenerationSoftware,KiCad,Pcbnew,8.0.6*%
%TF.CreationDate,2024-11-20T20:55:38+11:00*%
%TF.ProjectId,clock-divider,636c6f63-6b2d-4646-9976-696465722e6b,1*%
%TF.SameCoordinates,Original*%
%TF.FileFunction,Copper,L2,Bot*%
%TF.FilePolarity,Positive*%
%FSLAX46Y46*%
G04 Gerber Fmt 4.6, Leading zero omitted, Abs format (unit mm)*
G04 Created by KiCad (PCBNEW 8.0.6) date 2024-11-20 20:55:38*
%MOMM*%
%LPD*%
G01*
G04 APERTURE LIST*
G04 Aperture macros list*
%AMRoundRect*
0 Rectangle with rounded corners*
0 $1 Rounding radius*
0 $2 $3 $4 $5 $6 $7 $8 $9 X,Y pos of 4 corners*
0 Add a 4 corners polygon primitive as box body*
4,1,4,$2,$3,$4,$5,$6,$7,$8,$9,$2,$3,0*
0 Add four circle primitives for the rounded corners*
1,1,$1+$1,$2,$3*
1,1,$1+$1,$4,$5*
1,1,$1+$1,$6,$7*
1,1,$1+$1,$8,$9*
0 Add four rect primitives between the rounded corners*
20,1,$1+$1,$2,$3,$4,$5,0*
20,1,$1+$1,$4,$5,$6,$7,0*
20,1,$1+$1,$6,$7,$8,$9,0*
20,1,$1+$1,$8,$9,$2,$3,0*%
%AMFreePoly0*
4,1,6,1.000000,0.000000,0.500000,-0.750000,-0.500000,-0.750000,-0.500000,0.750000,0.500000,0.750000,1.000000,0.000000,1.000000,0.000000,$1*%
%AMFreePoly1*
4,1,6,0.500000,-0.750000,-0.650000,-0.750000,-0.150000,0.000000,-0.650000,0.750000,0.500000,0.750000,0.500000,-0.750000,0.500000,-0.750000,$1*%
G04 Aperture macros list end*
%TA.AperFunction,ComponentPad*%
%ADD10R,1.600000X1.600000*%
%TD*%
%TA.AperFunction,ComponentPad*%
%ADD11O,1.600000X1.600000*%
%TD*%
%TA.AperFunction,ComponentPad*%
%ADD12RoundRect,0.250000X-0.550000X-0.550000X0.550000X-0.550000X0.550000X0.550000X-0.550000X0.550000X0*%
%TD*%
%TA.AperFunction,ComponentPad*%
%ADD13C,1.600000*%
%TD*%
%TA.AperFunction,ComponentPad*%
%ADD14R,1.500000X1.500000*%
%TD*%
%TA.AperFunction,ComponentPad*%
%ADD15C,1.500000*%
%TD*%
%TA.AperFunction,ComponentPad*%
%ADD16C,1.000000*%
%TD*%
%TA.AperFunction,SMDPad,CuDef*%
%ADD17FreePoly0,0.000000*%
%TD*%
%TA.AperFunction,SMDPad,CuDef*%
%ADD18FreePoly1,0.000000*%
%TD*%
%TA.AperFunction,SMDPad,CuDef*%
%ADD19FreePoly0,270.000000*%
%TD*%
%TA.AperFunction,SMDPad,CuDef*%
%ADD20FreePoly1,270.000000*%
%TD*%
%TA.AperFunction,ViaPad*%
%ADD21C,0.600000*%
%TD*%
%TA.AperFunction,Conductor*%
%ADD22C,0.200000*%
%TD*%
%TA.AperFunction,Conductor*%
%ADD23C,0.400000*%
%TD*%
G04 APERTURE END LIST*
D10*
%TO.P,U1,1,Q12*%
%TO.N,Net-(JP8-A)*%
X67310000Y-76200000D03*
D11*
%TO.P,U1,2,Q13*%
%TO.N,Net-(JP9-A)*%
X67310000Y-78740000D03*
%TO.P,U1,3,Q14*%
%TO.N,Net-(JP10-A)*%
X67310000Y-81280000D03*
%TO.P,U1,4,Q6*%
%TO.N,Net-(JP3-A)*%
X67310000Y-83820000D03*
%TO.P,U1,5,Q5*%
%TO.N,Net-(JP2-A)*%
X67310000Y-86360000D03*
%TO.P,U1,6,Q7*%
%TO.N,Net-(JP4-A)*%
X67310000Y-88900000D03*
%TO.P,U1,7,Q4*%
%TO.N,Net-(JP1-A)*%
X67310000Y-91440000D03*
%TO.P,U1,8,VSS*%
%TO.N,GND*%
X67310000Y-93980000D03*
%TO.P,U1,9,~{\u03A60}*%
%TO.N,unconnected-(U1-~{\u03A60}-Pad9)*%
X74930000Y-93980000D03*
%TO.P,U1,10,\u03A60*%
%TO.N,Net-(U1-\u03A60)*%
X74930000Y-91440000D03*
%TO.P,U1,11,~{\u03A61}*%
%TO.N,Net-(JP11-B)*%
X74930000Y-88900000D03*
%TO.P,U1,12,CLR*%
%TO.N,GND*%
X74930000Y-86360000D03*
%TO.P,U1,13,Q9*%
%TO.N,Net-(JP6-A)*%
X74930000Y-83820000D03*
%TO.P,U1,14,Q8*%
%TO.N,Net-(JP5-A)*%
X74930000Y-81280000D03*
%TO.P,U1,15,Q10*%
%TO.N,Net-(JP7-A)*%
X74930000Y-78740000D03*
%TO.P,U1,16,VDD*%
%TO.N,+5V*%
X74930000Y-76200000D03*
%TD*%
D12*
%TO.P,J2,1,Pin_1*%
%TO.N,+5V*%
X78740000Y-73660000D03*
%TD*%
%TO.P,J3,1,Pin_1*%
%TO.N,Net-(J3-Pin_1)*%
X63500000Y-76200000D03*
%TD*%
D13*
%TO.P,C3,1*%
%TO.N,+5V*%
X72350000Y-73025000D03*
%TO.P,C3,2*%
%TO.N,GND*%
X69850000Y-73025000D03*
%TD*%
%TO.P,R3,1*%
%TO.N,Net-(JP1-B)*%
X63500000Y-93980000D03*
D11*
%TO.P,R3,2*%
%TO.N,Net-(Q1-B)*%
X63500000Y-96520000D03*
%TD*%
D14*
%TO.P,Q1,1,E*%
%TO.N,GND*%
X78740000Y-96520000D03*
D15*
%TO.P,Q1,2,B*%
%TO.N,Net-(Q1-B)*%
X78740000Y-93980000D03*
%TO.P,Q1,3,C*%
%TO.N,Net-(J4-Pin_1)*%
X78740000Y-91440000D03*
%TD*%
D12*
%TO.P,J1,1,Pin_1*%
%TO.N,GND*%
X63500000Y-101600000D03*
%TD*%
D13*
%TO.P,R2,1*%
%TO.N,Net-(C1-Pad1)*%
X73025000Y-101600000D03*
D11*
%TO.P,R2,2*%
%TO.N,Net-(U1-\u03A60)*%
X70485000Y-101600000D03*
%TD*%
D13*
%TO.P,C1,1*%
%TO.N,Net-(C1-Pad1)*%
X76200000Y-99060000D03*
%TO.P,C1,2*%
%TO.N,GND*%
X76200000Y-101560000D03*
%TD*%
D16*
%TO.P,Y1,1,1*%
%TO.N,Net-(JP11-B)*%
X70485000Y-97790000D03*
%TO.P,Y1,2,2*%
%TO.N,Net-(C1-Pad1)*%
X72385000Y-97790000D03*
X74295000Y-97790000D03*
%TD*%
D13*
%TO.P,R1,1*%
%TO.N,Net-(JP11-B)*%
X67310000Y-99060000D03*
D11*
%TO.P,R1,2*%
%TO.N,Net-(U1-\u03A60)*%
X67310000Y-101600000D03*
%TD*%
D12*
%TO.P,J4,1,Pin_1*%
%TO.N,Net-(J4-Pin_1)*%
X78740000Y-76200000D03*
%TD*%
D13*
%TO.P,C2,1*%
%TO.N,Net-(JP11-B)*%
X78740000Y-99060000D03*
%TO.P,C2,2*%
%TO.N,GND*%
X78740000Y-101560000D03*
%TD*%
D17*
%TO.P,JP5,1,A*%
%TO.N,Net-(JP5-A)*%
X77220000Y-81280000D03*
D18*
%TO.P,JP5,2,B*%
%TO.N,Net-(JP1-B)*%
X78670000Y-81280000D03*
%TD*%
D19*
%TO.P,JP11,1,A*%
%TO.N,Net-(J3-Pin_1)*%
X77470000Y-87450000D03*
D20*
%TO.P,JP11,2,B*%
%TO.N,Net-(JP11-B)*%
X77470000Y-88900000D03*
%TD*%
D17*
%TO.P,JP9,1,A*%
%TO.N,Net-(JP9-A)*%
X69600000Y-78740000D03*
D18*
%TO.P,JP9,2,B*%
%TO.N,Net-(JP1-B)*%
X71050000Y-78740000D03*
%TD*%
D17*
%TO.P,JP4,1,A*%
%TO.N,Net-(JP4-A)*%
X69600000Y-88900000D03*
D18*
%TO.P,JP4,2,B*%
%TO.N,Net-(JP1-B)*%
X71050000Y-88900000D03*
%TD*%
D17*
%TO.P,JP1,1,A*%
%TO.N,Net-(JP1-A)*%
X69600000Y-91490000D03*
D18*
%TO.P,JP1,2,B*%
%TO.N,Net-(JP1-B)*%
X71050000Y-91490000D03*
%TD*%
D17*
%TO.P,JP3,1,A*%
%TO.N,Net-(JP3-A)*%
X69600000Y-83820000D03*
D18*
%TO.P,JP3,2,B*%
%TO.N,Net-(JP1-B)*%
X71050000Y-83820000D03*
%TD*%
D17*
%TO.P,JP8,1,A*%
%TO.N,Net-(JP8-A)*%
X69600000Y-76200000D03*
D18*
%TO.P,JP8,2,B*%
%TO.N,Net-(JP1-B)*%
X71050000Y-76200000D03*
%TD*%
D17*
%TO.P,JP10,1,A*%
%TO.N,Net-(JP10-A)*%
X69600000Y-81280000D03*
D18*
%TO.P,JP10,2,B*%
%TO.N,Net-(JP1-B)*%
X71050000Y-81280000D03*
%TD*%
D17*
%TO.P,JP2,1,A*%
%TO.N,Net-(JP2-A)*%
X69600000Y-86360000D03*
D18*
%TO.P,JP2,2,B*%
%TO.N,Net-(JP1-B)*%
X71050000Y-86360000D03*
%TD*%
D17*
%TO.P,JP6,1,A*%
%TO.N,Net-(JP6-A)*%
X77220000Y-83820000D03*
D18*
%TO.P,JP6,2,B*%
%TO.N,Net-(JP1-B)*%
X78670000Y-83820000D03*
%TD*%
D17*
%TO.P,JP7,1,A*%
%TO.N,Net-(JP7-A)*%
X77220000Y-78740000D03*
D18*
%TO.P,JP7,2,B*%
%TO.N,Net-(JP1-B)*%
X78670000Y-78740000D03*
%TD*%
D21*
%TO.N,Net-(J3-Pin_1)*%
X76200000Y-87630000D03*
%TD*%
D22*
%TO.N,Net-(U1-\u03A60)*%
X67310000Y-101600000D02*
X70485000Y-101600000D01*
%TO.N,Net-(C1-Pad1)*%
X72385000Y-100960000D02*
X73025000Y-101600000D01*
X74930000Y-97790000D02*
X74295000Y-97790000D01*
X76200000Y-99060000D02*
X74930000Y-97790000D01*
X72385000Y-97790000D02*
X72385000Y-100960000D01*
X74295000Y-97790000D02*
X72385000Y-97790000D01*
D23*
%TO.N,+5V*%
X74680000Y-76215000D02*
X76185000Y-76215000D01*
X76185000Y-76215000D02*
X78740000Y-73660000D01*
D22*
%TO.N,Net-(JP1-B)*%
X78670000Y-83820000D02*
X78670000Y-84575000D01*
X78670000Y-78740000D02*
X78670000Y-83820000D01*
X64770000Y-85090000D02*
X71120000Y-85090000D01*
X63500000Y-93980000D02*
X63500000Y-86360000D01*
X71120000Y-85090000D02*
X71050000Y-85090000D01*
X78155000Y-85090000D02*
X71120000Y-85090000D01*
X63500000Y-86360000D02*
X64770000Y-85090000D01*
X71050000Y-91490000D02*
X71050000Y-85160000D01*
X71050000Y-85160000D02*
X71120000Y-85090000D01*
X71050000Y-76200000D02*
X71050000Y-85090000D01*
X78670000Y-84575000D02*
X78155000Y-85090000D01*
%TO.N,Net-(JP1-A)*%
X67060000Y-91455000D02*
X69565000Y-91455000D01*
X69565000Y-91455000D02*
X69600000Y-91490000D01*
%TO.N,Net-(JP2-A)*%
X67060000Y-86375000D02*
X69585000Y-86375000D01*
X69585000Y-86375000D02*
X69600000Y-86360000D01*
%TO.N,Net-(JP3-A)*%
X69585000Y-83835000D02*
X69600000Y-83820000D01*
X67060000Y-83835000D02*
X69585000Y-83835000D01*
%TO.N,Net-(JP4-A)*%
X67060000Y-88915000D02*
X69585000Y-88915000D01*
X69585000Y-88915000D02*
X69600000Y-88900000D01*
%TO.N,Net-(JP5-A)*%
X74680000Y-81295000D02*
X77205000Y-81295000D01*
X77205000Y-81295000D02*
X77220000Y-81280000D01*
%TO.N,Net-(JP6-A)*%
X74680000Y-83835000D02*
X77205000Y-83835000D01*
X77205000Y-83835000D02*
X77220000Y-83820000D01*
%TO.N,Net-(JP7-A)*%
X77205000Y-78755000D02*
X77220000Y-78740000D01*
X74680000Y-78755000D02*
X77205000Y-78755000D01*
%TO.N,Net-(JP8-A)*%
X67060000Y-76215000D02*
X69585000Y-76215000D01*
X69585000Y-76215000D02*
X69600000Y-76200000D01*
%TO.N,Net-(JP9-A)*%
X69585000Y-78755000D02*
X69600000Y-78740000D01*
X67060000Y-78755000D02*
X69585000Y-78755000D01*
%TO.N,Net-(JP10-A)*%
X67060000Y-81295000D02*
X69585000Y-81295000D01*
X69585000Y-81295000D02*
X69600000Y-81280000D01*
%TO.N,Net-(J3-Pin_1)*%
X76200000Y-87630000D02*
X77290000Y-87630000D01*
X77290000Y-87630000D02*
X77470000Y-87450000D01*
%TO.N,Net-(Q1-B)*%
X63500000Y-96520000D02*
X67340686Y-96520000D01*
X67340686Y-96520000D02*
X71150686Y-92710000D01*
X77470000Y-92710000D02*
X78740000Y-93980000D01*
X71150686Y-92710000D02*
X77470000Y-92710000D01*
%TO.N,Net-(J4-Pin_1)*%
X80010000Y-90170000D02*
X78740000Y-91440000D01*
X78740000Y-76200000D02*
X80010000Y-77470000D01*
X80010000Y-77470000D02*
X80010000Y-90170000D01*
%TO.N,Net-(JP11-B)*%
X69220000Y-99060000D02*
X70490000Y-97790000D01*
X70490000Y-97790000D02*
X71290000Y-96990000D01*
X76670000Y-96990000D02*
X78740000Y-99060000D01*
X77470000Y-88900000D02*
X74695000Y-88900000D01*
X71290000Y-96990000D02*
X76670000Y-96990000D01*
X67310000Y-99060000D02*
X69220000Y-99060000D01*
%TD*%
%TA.AperFunction,Conductor*%
%TO.N,GND*%
G36*
X69293609Y-71640185D02*
G01*
X69339364Y-71692989D01*
X69349308Y-71762147D01*
X69320283Y-71825703D01*
X69278974Y-71856882D01*
X69197520Y-71894864D01*
X69197512Y-71894868D01*
X69124526Y-71945973D01*
X69124526Y-71945974D01*
X69803553Y-72625000D01*
X69797339Y-72625000D01*
X69695606Y-72652259D01*
X69604394Y-72704920D01*
X69529920Y-72779394D01*
X69477259Y-72870606D01*
X69450000Y-72972339D01*
X69450000Y-72978552D01*
X68770974Y-72299526D01*
X68770973Y-72299526D01*
X68719868Y-72372512D01*
X68719866Y-72372516D01*
X68623734Y-72578673D01*
X68623730Y-72578682D01*
X68564860Y-72798389D01*
X68564858Y-72798400D01*
X68545034Y-73024997D01*
X68545034Y-73025002D01*
X68564858Y-73251599D01*
X68564860Y-73251610D01*
X68623730Y-73471317D01*
X68623735Y-73471331D01*
X68719863Y-73677478D01*
X68770974Y-73750472D01*
X69450000Y-73071446D01*
X69450000Y-73077661D01*
X69477259Y-73179394D01*
X69529920Y-73270606D01*
X69604394Y-73345080D01*
X69695606Y-73397741D01*
X69797339Y-73425000D01*
X69803553Y-73425000D01*
X69124526Y-74104025D01*
X69197513Y-74155132D01*
X69197521Y-74155136D01*
X69403668Y-74251264D01*
X69403682Y-74251269D01*
X69623389Y-74310139D01*
X69623400Y-74310141D01*
X69849998Y-74329966D01*
X69850002Y-74329966D01*
X70076599Y-74310141D01*
X70076610Y-74310139D01*
X70296317Y-74251269D01*
X70296331Y-74251264D01*
X70502478Y-74155136D01*
X70575471Y-74104024D01*
X69896447Y-73425000D01*
X69902661Y-73425000D01*
X70004394Y-73397741D01*
X70095606Y-73345080D01*
X70170080Y-73270606D01*
X70222741Y-73179394D01*
X70250000Y-73077661D01*
X70250000Y-73071447D01*
X70929024Y-73750471D01*
X70980134Y-73677481D01*
X70987340Y-73662028D01*
X71033511Y-73609587D01*
X71100704Y-73590433D01*
X71167585Y-73610646D01*
X71212105Y-73662022D01*
X71219430Y-73677730D01*
X71219432Y-73677734D01*
X71349954Y-73864141D01*
X71510858Y-74025045D01*
X71510861Y-74025047D01*
X71697266Y-74155568D01*
X71903504Y-74251739D01*
X72123308Y-74310635D01*
X72285230Y-74324801D01*
X72349998Y-74330468D01*
X72350000Y-74330468D01*
X72350002Y-74330468D01*
X72406673Y-74325509D01*
X72576692Y-74310635D01*
X72796496Y-74251739D01*
X73002734Y-74155568D01*
X73189139Y-74025047D01*
X73350047Y-73864139D01*
X73480568Y-73677734D01*
X73576739Y-73471496D01*
X73635635Y-73251692D01*
X73655468Y-73025000D01*
X73635635Y-72798308D01*
X73576739Y-72578504D01*
X73480568Y-72372266D01*
X73350047Y-72185861D01*
X73350045Y-72185858D01*
X73189141Y-72024954D01*
X73002734Y-71894432D01*
X73002732Y-71894431D01*
X72922208Y-71856882D01*
X72869769Y-71810709D01*
X72850617Y-71743516D01*
X72870833Y-71676635D01*
X72923998Y-71631300D01*
X72974613Y-71620500D01*
X80655500Y-71620500D01*
X80722539Y-71640185D01*
X80768294Y-71692989D01*
X80779500Y-71744500D01*
X80779500Y-77139039D01*
X80759815Y-77206078D01*
X80707011Y-77251833D01*
X80637853Y-77261777D01*
X80574297Y-77232752D01*
X80548115Y-77201043D01*
X80540640Y-77188097D01*
X80540637Y-77188092D01*
X80512317Y-77139039D01*
X80490520Y-77101284D01*
X80378716Y-76989480D01*
X80378715Y-76989479D01*
X80374385Y-76985149D01*
X80374374Y-76985139D01*
X80076818Y-76687583D01*
X80043333Y-76626260D01*
X80040499Y-76599902D01*
X80040499Y-75599998D01*
X80040498Y-75599981D01*
X80029999Y-75497203D01*
X80029998Y-75497200D01*
X80007902Y-75430520D01*
X79974814Y-75330666D01*
X79882712Y-75181344D01*
X79758656Y-75057288D01*
X79758655Y-75057287D01*
X79723395Y-75035539D01*
X79676670Y-74983591D01*
X79665447Y-74914629D01*
X79693290Y-74850547D01*
X79723395Y-74824461D01*
X79758656Y-74802712D01*
X79882712Y-74678656D01*
X79974814Y-74529334D01*
X80029999Y-74362797D01*
X80040500Y-74260009D01*
X80040499Y-73059992D01*
X80036924Y-73024999D01*
X80029999Y-72957203D01*
X80029998Y-72957200D01*
X79974814Y-72790666D01*
X79882712Y-72641344D01*
X79758656Y-72517288D01*
X79609334Y-72425186D01*
X79442797Y-72370001D01*
X79442795Y-72370000D01*
X79340010Y-72359500D01*
X78139998Y-72359500D01*
X78139981Y-72359501D01*
X78037203Y-72370000D01*
X78037200Y-72370001D01*
X77870668Y-72425185D01*
X77870663Y-72425187D01*
X77721342Y-72517289D01*
X77597289Y-72641342D01*
X77505187Y-72790663D01*
X77505185Y-72790668D01*
X77502652Y-72798313D01*
X77450001Y-72957203D01*
X77450001Y-72957204D01*
X77450000Y-72957204D01*
X77439500Y-73059983D01*
X77439500Y-73918480D01*
X77419815Y-73985519D01*
X77403181Y-74006161D01*
X76076945Y-75332396D01*
X76015622Y-75365881D01*
X75945930Y-75360897D01*
X75901583Y-75332396D01*
X75769141Y-75199954D01*
X75582734Y-75069432D01*
X75582732Y-75069431D01*
X75376497Y-74973261D01*
X75376488Y-74973258D01*
X75156697Y-74914366D01*
X75156693Y-74914365D01*
X75156692Y-74914365D01*
X75156691Y-74914364D01*
X75156686Y-74914364D01*
X74930002Y-74894532D01*
X74929998Y-74894532D01*
X74703313Y-74914364D01*
X74703302Y-74914366D01*
X74483511Y-74973258D01*
X74483502Y-74973261D01*
X74277267Y-75069431D01*
X74277265Y-75069432D01*
X74090858Y-75199954D01*
X73929954Y-75360858D01*
X73799432Y-75547265D01*
X73799431Y-75547267D01*
X73703261Y-75753502D01*
X73703258Y-75753511D01*
X73644366Y-75973302D01*
X73644364Y-75973313D01*
X73624532Y-76199998D01*
X73624532Y-76200001D01*
X73644364Y-76426686D01*
X73644366Y-76426697D01*
X73703258Y-76646488D01*
X73703261Y-76646497D01*
X73799431Y-76852732D01*
X73799432Y-76852734D01*
X73929954Y-77039141D01*
X74090858Y-77200045D01*
X74090861Y-77200047D01*
X74277266Y-77330568D01*
X74335275Y-77357618D01*
X74387714Y-77403791D01*
X74406866Y-77470984D01*
X74386650Y-77537865D01*
X74335275Y-77582382D01*
X74277267Y-77609431D01*
X74277265Y-77609432D01*
X74090858Y-77739954D01*
X73929954Y-77900858D01*
X73799432Y-78087265D01*
X73799431Y-78087267D01*
X73703261Y-78293502D01*
X73703258Y-78293511D01*
X73644366Y-78513302D01*
X73644364Y-78513313D01*
X73624532Y-78739998D01*
X73624532Y-78740001D01*
X73644364Y-78966686D01*
X73644366Y-78966697D01*
X73703258Y-79186488D01*
X73703261Y-79186497D01*
X73799431Y-79392732D01*
X73799432Y-79392734D01*
X73929954Y-79579141D01*
X74090858Y-79740045D01*
X74090861Y-79740047D01*
X74277266Y-79870568D01*
X74335275Y-79897618D01*
X74387714Y-79943791D01*
X74406866Y-80010984D01*
X74386650Y-80077865D01*
X74335275Y-80122382D01*
X74277267Y-80149431D01*
X74277265Y-80149432D01*
X74090858Y-80279954D01*
X73929954Y-80440858D01*
X73799432Y-80627265D01*
X73799431Y-80627267D01*
X73703261Y-80833502D01*
X73703258Y-80833511D01*
X73644366Y-81053302D01*
X73644364Y-81053313D01*
X73624532Y-81279998D01*
X73624532Y-81280001D01*
X73644364Y-81506686D01*
X73644366Y-81506697D01*
X73703258Y-81726488D01*
X73703261Y-81726497D01*
X73799431Y-81932732D01*
X73799432Y-81932734D01*
X73929954Y-82119141D01*
X74090858Y-82280045D01*
X74090861Y-82280047D01*
X74277266Y-82410568D01*
X74335275Y-82437618D01*
X74387714Y-82483791D01*
X74406866Y-82550984D01*
X74386650Y-82617865D01*
X74335275Y-82662382D01*
X74277267Y-82689431D01*
X74277265Y-82689432D01*
X74090858Y-82819954D01*
X73929954Y-82980858D01*
X73799432Y-83167265D01*
X73799431Y-83167267D01*
X73703261Y-83373502D01*
X73703258Y-83373511D01*
X73644366Y-83593302D01*
X73644364Y-83593313D01*
X73624532Y-83819998D01*
X73624532Y-83820001D01*
X73644364Y-84046686D01*
X73644366Y-84046697D01*
X73703258Y-84266488D01*
X73703261Y-84266497D01*
X73724991Y-84313095D01*
X73735483Y-84382172D01*
X73706964Y-84445956D01*
X73648487Y-84484196D01*
X73612609Y-84489500D01*
X72179500Y-84489500D01*
X72112461Y-84469815D01*
X72066706Y-84417011D01*
X72055500Y-84365500D01*
X72055500Y-83070000D01*
X72050355Y-82998060D01*
X72009819Y-82860008D01*
X71932031Y-82738968D01*
X71823294Y-82644746D01*
X71823292Y-82644745D01*
X71818865Y-82640909D01*
X71781091Y-82582130D01*
X71781091Y-82512261D01*
X71818866Y-82453483D01*
X71833021Y-82442885D01*
X71881032Y-82412031D01*
X71975254Y-82303294D01*
X72035024Y-82172416D01*
X72055500Y-82030000D01*
X72055500Y-80530000D01*
X72050355Y-80458060D01*
X72009819Y-80320008D01*
X71932031Y-80198968D01*
X71823294Y-80104746D01*
X71823292Y-80104745D01*
X71818865Y-80100909D01*
X71781091Y-80042130D01*
X71781091Y-79972261D01*
X71818866Y-79913483D01*
X71833021Y-79902885D01*
X71881032Y-79872031D01*
X71975254Y-79763294D01*
X72035024Y-79632416D01*
X72055500Y-79490000D01*
X72055500Y-77990000D01*
X72050355Y-77918060D01*
X72009819Y-77780008D01*
X71966052Y-77711905D01*
X71932032Y-77658969D01*
X71923777Y-77651816D01*
X71823294Y-77564746D01*
X71823292Y-77564745D01*
X71818865Y-77560909D01*
X71781091Y-77502130D01*
X71781091Y-77432261D01*
X71818866Y-77373483D01*
X71833021Y-77362885D01*
X71881032Y-77332031D01*
X71975254Y-77223294D01*
X72035024Y-77092416D01*
X72055500Y-76950000D01*
X72055500Y-75450000D01*
X72050355Y-75378060D01*
X72045315Y-75360897D01*
X72025237Y-75292517D01*
X72009819Y-75240008D01*
X71972118Y-75181344D01*
X71932032Y-75118969D01*
X71932028Y-75118965D01*
X71823299Y-75024750D01*
X71823297Y-75024748D01*
X71823294Y-75024746D01*
X71823290Y-75024744D01*
X71692419Y-74964976D01*
X71692414Y-74964975D01*
X71550000Y-74944500D01*
X70400000Y-74944500D01*
X70399978Y-74944500D01*
X70319669Y-74950923D01*
X70319658Y-74950925D01*
X70291253Y-74959787D01*
X70236680Y-74964151D01*
X70100000Y-74944500D01*
X69100000Y-74944500D01*
X69099997Y-74944500D01*
X69028059Y-74949644D01*
X68890005Y-74990182D01*
X68768969Y-75067967D01*
X68768969Y-75067968D01*
X68718267Y-75126480D01*
X68659488Y-75164254D01*
X68589619Y-75164253D01*
X68530841Y-75126478D01*
X68525289Y-75119588D01*
X68487741Y-75069431D01*
X68467546Y-75042454D01*
X68467544Y-75042453D01*
X68467544Y-75042452D01*
X68352335Y-74956206D01*
X68352328Y-74956202D01*
X68217482Y-74905908D01*
X68217483Y-74905908D01*
X68157883Y-74899501D01*
X68157881Y-74899500D01*
X68157873Y-74899500D01*
X68157864Y-74899500D01*
X66462129Y-74899500D01*
X66462123Y-74899501D01*
X66402516Y-74905908D01*
X66267671Y-74956202D01*
X66267664Y-74956206D01*
X66152455Y-75042452D01*
X66152452Y-75042455D01*
X66066206Y-75157664D01*
X66066202Y-75157671D01*
X66015908Y-75292517D01*
X66009501Y-75352116D01*
X66009500Y-75352135D01*
X66009500Y-77047870D01*
X66009501Y-77047876D01*
X66015908Y-77107483D01*
X66066202Y-77242328D01*
X66066206Y-77242335D01*
X66152452Y-77357544D01*
X66152455Y-77357547D01*
X66267664Y-77443793D01*
X66267671Y-77443797D01*
X66312618Y-77460561D01*
X66402517Y-77494091D01*
X66437596Y-77497862D01*
X66502144Y-77524599D01*
X66541993Y-77581991D01*
X66544488Y-77651816D01*
X66508836Y-77711905D01*
X66495464Y-77722725D01*
X66470858Y-77739954D01*
X66309954Y-77900858D01*
X66179432Y-78087265D01*
X66179431Y-78087267D01*
X66083261Y-78293502D01*
X66083258Y-78293511D01*
X66024366Y-78513302D01*
X66024364Y-78513313D01*
X66004532Y-78739998D01*
X66004532Y-78740001D01*
X66024364Y-78966686D01*
X66024366Y-78966697D01*
X66083258Y-79186488D01*
X66083261Y-79186497D01*
X66179431Y-79392732D01*
X66179432Y-79392734D01*
X66309954Y-79579141D01*
X66470858Y-79740045D01*
X66470861Y-79740047D01*
X66657266Y-79870568D01*
X66715275Y-79897618D01*
X66767714Y-79943791D01*
X66786866Y-80010984D01*
X66766650Y-80077865D01*
X66715275Y-80122382D01*
X66657267Y-80149431D01*
X66657265Y-80149432D01*
X66470858Y-80279954D01*
X66309954Y-80440858D01*
X66179432Y-80627265D01*
X66179431Y-80627267D01*
X66083261Y-80833502D01*
X66083258Y-80833511D01*
X66024366Y-81053302D01*
X66024364Y-81053313D01*
X66004532Y-81279998D01*
X66004532Y-81280001D01*
X66024364Y-81506686D01*
X66024366Y-81506697D01*
X66083258Y-81726488D01*
X66083261Y-81726497D01*
X66179431Y-81932732D01*
X66179432Y-81932734D01*
X66309954Y-82119141D01*
X66470858Y-82280045D01*
X66470861Y-82280047D01*
X66657266Y-82410568D01*
X66715275Y-82437618D01*
X66767714Y-82483791D01*
X66786866Y-82550984D01*
X66766650Y-82617865D01*
X66715275Y-82662382D01*
X66657267Y-82689431D01*
X66657265Y-82689432D01*
X66470858Y-82819954D01*
X66309954Y-82980858D01*
X66179432Y-83167265D01*
X66179431Y-83167267D01*
X66083261Y-83373502D01*
X66083258Y-83373511D01*
X66024366Y-83593302D01*
X66024364Y-83593313D01*
X66004532Y-83819998D01*
X66004532Y-83820001D01*
X66024364Y-84046686D01*
X66024366Y-84046697D01*
X66083258Y-84266488D01*
X66083261Y-84266497D01*
X66104991Y-84313095D01*
X66115483Y-84382172D01*
X66086964Y-84445956D01*
X66028487Y-84484196D01*
X65992609Y-84489500D01*
X64849057Y-84489500D01*
X64690942Y-84489500D01*
X64538215Y-84530423D01*
X64538214Y-84530423D01*
X64538212Y-84530424D01*
X64538209Y-84530425D01*
X64488096Y-84559359D01*
X64488095Y-84559360D01*
X64444689Y-84584420D01*
X64401285Y-84609479D01*
X64401282Y-84609481D01*
X63019481Y-85991282D01*
X63019479Y-85991285D01*
X62969361Y-86078094D01*
X62969359Y-86078096D01*
X62940425Y-86128209D01*
X62940424Y-86128210D01*
X62940423Y-86128215D01*
X62899499Y-86280943D01*
X62899499Y-86280945D01*
X62899499Y-86449046D01*
X62899500Y-86449059D01*
X62899500Y-92748306D01*
X62879815Y-92815345D01*
X62846623Y-92849881D01*
X62660859Y-92979953D01*
X62499954Y-93140858D01*
X62369432Y-93327265D01*
X62369431Y-93327267D01*
X62273261Y-93533502D01*
X62273258Y-93533511D01*
X62214366Y-93753302D01*
X62214364Y-93753313D01*
X62194532Y-93979998D01*
X62194532Y-93980001D01*
X62214364Y-94206686D01*
X62214366Y-94206697D01*
X62273258Y-94426488D01*
X62273261Y-94426497D01*
X62369431Y-94632732D01*
X62369432Y-94632734D01*
X62499954Y-94819141D01*
X62660858Y-94980045D01*
X62660861Y-94980047D01*
X62847266Y-95110568D01*
X62885406Y-95128353D01*
X62905275Y-95137618D01*
X62957714Y-95183791D01*
X62976866Y-95250984D01*
X62956650Y-95317865D01*
X62905275Y-95362382D01*
X62847267Y-95389431D01*
X62847265Y-95389432D01*
X62660858Y-95519954D01*
X62499954Y-95680858D01*
X62369432Y-95867265D01*
X62369431Y-95867267D01*
X62273261Y-96073502D01*
X62273258Y-96073511D01*
X62214366Y-96293302D01*
X62214364Y-96293313D01*
X62194532Y-96519998D01*
X62194532Y-96520001D01*
X62214364Y-96746686D01*
X62214366Y-96746697D01*
X62273258Y-96966488D01*
X62273261Y-96966497D01*
X62369431Y-97172732D01*
X62369432Y-97172734D01*
X62499954Y-97359141D01*
X62660858Y-97520045D01*
X62660861Y-97520047D01*
X62847266Y-97650568D01*
X63053504Y-97746739D01*
X63273308Y-97805635D01*
X63435230Y-97819801D01*
X63499998Y-97825468D01*
X63500000Y-97825468D01*
X63500002Y-97825468D01*
X63556673Y-97820509D01*
X63726692Y-97805635D01*
X63946496Y-97746739D01*
X64152734Y-97650568D01*
X64339139Y-97520047D01*
X64500047Y-97359139D01*
X64630118Y-97173375D01*
X64684693Y-97129752D01*
X64731692Y-97120500D01*
X67254017Y-97120500D01*
X67254033Y-97120501D01*
X67261629Y-97120501D01*
X67419740Y-97120501D01*
X67419743Y-97120501D01*
X67572471Y-97079577D01*
X67641886Y-97039500D01*
X67709402Y-97000520D01*
X67821206Y-96888716D01*
X67821206Y-96888714D01*
X67831410Y-96878511D01*
X67831413Y-96878506D01*
X71363103Y-93346819D01*
X71424426Y-93313334D01*
X71450784Y-93310500D01*
X73612609Y-93310500D01*
X73679648Y-93330185D01*
X73725403Y-93382989D01*
X73735347Y-93452147D01*
X73724991Y-93486905D01*
X73703261Y-93533502D01*
X73703258Y-93533511D01*
X73644366Y-93753302D01*
X73644364Y-93753313D01*
X73624532Y-93979998D01*
X73624532Y-93980001D01*
X73644364Y-94206686D01*
X73644366Y-94206697D01*
X73703258Y-94426488D01*
X73703261Y-94426497D01*
X73799431Y-94632732D01*
X73799432Y-94632734D01*
X73929954Y-94819141D01*
X74090858Y-94980045D01*
X74090861Y-94980047D01*
X74277266Y-95110568D01*
X74483504Y-95206739D01*
X74703308Y-95265635D01*
X74865230Y-95279801D01*
X74929998Y-95285468D01*
X74930000Y-95285468D01*
X74930002Y-95285468D01*
X74986673Y-95280509D01*
X75156692Y-95265635D01*
X75376496Y-95206739D01*
X75582734Y-95110568D01*
X75769139Y-94980047D01*
X75930047Y-94819139D01*
X76060568Y-94632734D01*
X76156739Y-94426496D01*
X76215635Y-94206692D01*
X76235468Y-93980000D01*
X76215635Y-93753308D01*
X76168693Y-93578117D01*
X76156741Y-93533511D01*
X76156738Y-93533502D01*
X76135009Y-93486905D01*
X76124517Y-93417828D01*
X76153036Y-93354044D01*
X76211513Y-93315804D01*
X76247391Y-93310500D01*
X77169903Y-93310500D01*
X77236942Y-93330185D01*
X77257584Y-93346819D01*
X77488882Y-93578117D01*
X77522367Y-93639440D01*
X77520976Y-93697889D01*
X77503795Y-93762011D01*
X77503792Y-93762029D01*
X77484723Y-93979997D01*
X77484723Y-93980002D01*
X77503793Y-94197975D01*
X77503793Y-94197979D01*
X77560422Y-94409322D01*
X77560424Y-94409326D01*
X77560425Y-94409330D01*
X77606661Y-94508484D01*
X77652897Y-94607638D01*
X77652898Y-94607639D01*
X77778402Y-94786877D01*
X77933123Y-94941598D01*
X78079977Y-95044426D01*
X78123601Y-95099002D01*
X78130793Y-95168501D01*
X78099271Y-95230855D01*
X78039041Y-95266269D01*
X78008852Y-95270000D01*
X77942155Y-95270000D01*
X77882627Y-95276401D01*
X77882620Y-95276403D01*
X77747913Y-95326645D01*
X77747906Y-95326649D01*
X77632812Y-95412809D01*
X77632809Y-95412812D01*
X77546649Y-95527906D01*
X77546645Y-95527913D01*
X77496403Y-95662620D01*
X77496401Y-95662627D01*
X77490000Y-95722155D01*
X77490000Y-96270000D01*
X78424314Y-96270000D01*
X78419920Y-96274394D01*
X78367259Y-96365606D01*
X78340000Y-96467339D01*
X78340000Y-96572661D01*
X78367259Y-96674394D01*
X78419920Y-96765606D01*
X78424314Y-96770000D01*
X77489999Y-96770000D01*
X77482297Y-96777702D01*
X77420974Y-96811187D01*
X77351282Y-96806201D01*
X77306936Y-96777701D01*
X77157590Y-96628355D01*
X77157588Y-96628352D01*
X77038717Y-96509481D01*
X77038716Y-96509480D01*
X76951904Y-96459360D01*
X76951904Y-96459359D01*
X76951900Y-96459358D01*
X76901785Y-96430423D01*
X76749057Y-96389499D01*
X76590943Y-96389499D01*
X76583347Y-96389499D01*
X76583331Y-96389500D01*
X71376669Y-96389500D01*
X71376653Y-96389499D01*
X71369057Y-96389499D01*
X71210943Y-96389499D01*
X71103587Y-96418265D01*
X71058210Y-96430424D01*
X71058209Y-96430425D01*
X71008096Y-96459359D01*
X71008095Y-96459360D01*
X70994275Y-96467339D01*
X70921285Y-96509479D01*
X70921282Y-96509481D01*
X70858103Y-96572661D01*
X70809480Y-96621284D01*
X70809478Y-96621286D01*
X70684078Y-96746686D01*
X70673131Y-96757633D01*
X70611808Y-96791117D01*
X70573298Y-96793354D01*
X70485001Y-96784659D01*
X70485000Y-96784659D01*
X70288870Y-96803975D01*
X70100266Y-96861188D01*
X69926467Y-96954086D01*
X69926460Y-96954090D01*
X69774116Y-97079116D01*
X69649090Y-97231460D01*
X69649086Y-97231467D01*
X69556188Y-97405266D01*
X69498975Y-97593870D01*
X69479659Y-97790000D01*
X69488355Y-97878297D01*
X69475336Y-97946943D01*
X69452633Y-97978131D01*
X69007584Y-98423181D01*
X68946261Y-98456666D01*
X68919903Y-98459500D01*
X68541692Y-98459500D01*
X68474653Y-98439815D01*
X68440119Y-98406625D01*
X68310047Y-98220861D01*
X68310045Y-98220858D01*
X68149141Y-98059954D01*
X67962734Y-97929432D01*
X67962732Y-97929431D01*
X67756497Y-97833261D01*
X67756488Y-97833258D01*
X67536697Y-97774366D01*
X67536693Y-97774365D01*
X67536692Y-97774365D01*
X67536691Y-97774364D01*
X67536686Y-97774364D01*
X67310002Y-97754532D01*
X67309998Y-97754532D01*
X67083313Y-97774364D01*
X67083302Y-97774366D01*
X66863511Y-97833258D01*
X66863502Y-97833261D01*
X66657267Y-97929431D01*
X66657265Y-97929432D01*
X66470858Y-98059954D01*
X66309954Y-98220858D01*
X66179432Y-98407265D01*
X66179431Y-98407267D01*
X66083261Y-98613502D01*
X66083258Y-98613511D01*
X66024366Y-98833302D01*
X66024364Y-98833313D01*
X66004532Y-99059998D01*
X66004532Y-99060001D01*
X66024364Y-99286686D01*
X66024366Y-99286697D01*
X66083258Y-99506488D01*
X66083261Y-99506497D01*
X66179431Y-99712732D01*
X66179432Y-99712734D01*
X66309954Y-99899141D01*
X66470858Y-100060045D01*
X66470861Y-100060047D01*
X66657266Y-100190568D01*
X66715275Y-100217618D01*
X66767714Y-100263791D01*
X66786866Y-100330984D01*
X66766650Y-100397865D01*
X66715275Y-100442382D01*
X66657267Y-100469431D01*
X66657265Y-100469432D01*
X66470858Y-100599954D01*
X66309954Y-100760858D01*
X66179432Y-100947265D01*
X66179431Y-100947267D01*
X66083261Y-101153502D01*
X66083258Y-101153511D01*
X66024366Y-101373302D01*
X66024364Y-101373313D01*
X66004532Y-101599998D01*
X66004532Y-101600001D01*
X66024364Y-101826686D01*
X66024366Y-101826697D01*
X66083258Y-102046488D01*
X66083261Y-102046497D01*
X66179431Y-102252732D01*
X66179432Y-102252734D01*
X66309954Y-102439141D01*
X66470858Y-102600045D01*
X66470861Y-102600047D01*
X66657266Y-102730568D01*
X66863504Y-102826739D01*
X66863509Y-102826740D01*
X66863511Y-102826741D01*
X66916415Y-102840916D01*
X67083308Y-102885635D01*
X67245230Y-102899801D01*
X67309998Y-102905468D01*
X67310000Y-102905468D01*
X67310002Y-102905468D01*
X67372522Y-102899998D01*
X67536692Y-102885635D01*
X67756496Y-102826739D01*
X67962734Y-102730568D01*
X68149139Y-102600047D01*
X68310047Y-102439139D01*
X68440118Y-102253375D01*
X68494693Y-102209752D01*
X68541692Y-102200500D01*
X69253308Y-102200500D01*
X69320347Y-102220185D01*
X69354880Y-102253374D01*
X69440480Y-102375624D01*
X69484954Y-102439141D01*
X69645858Y-102600045D01*
X69645861Y-102600047D01*
X69832266Y-102730568D01*
X70038504Y-102826739D01*
X70038509Y-102826740D01*
X70038511Y-102826741D01*
X70091415Y-102840916D01*
X70258308Y-102885635D01*
X70420230Y-102899801D01*
X70484998Y-102905468D01*
X70485000Y-102905468D01*
X70485002Y-102905468D01*
X70547522Y-102899998D01*
X70711692Y-102885635D01*
X70931496Y-102826739D01*
X71137734Y-102730568D01*
X71324139Y-102600047D01*
X71485047Y-102439139D01*
X71615568Y-102252734D01*
X71642618Y-102194724D01*
X71688790Y-102142285D01*
X71755983Y-102123133D01*
X71822865Y-102143348D01*
X71867382Y-102194725D01*
X71894429Y-102252728D01*
X71894432Y-102252734D01*
X72024954Y-102439141D01*
X72185858Y-102600045D01*
X72185861Y-102600047D01*
X72372266Y-102730568D01*
X72578504Y-102826739D01*
X72578509Y-102826740D01*
X72578511Y-102826741D01*
X72631415Y-102840916D01*
X72798308Y-102885635D01*
X72960230Y-102899801D01*
X73024998Y-102905468D01*
X73025000Y-102905468D01*
X73025002Y-102905468D01*
X73087522Y-102899998D01*
X73251692Y-102885635D01*
X73471496Y-102826739D01*
X73677734Y-102730568D01*
X73864139Y-102600047D01*
X74025047Y-102439139D01*
X74155568Y-102252734D01*
X74251739Y-102046496D01*
X74310635Y-101826692D01*
X74330468Y-101600000D01*
X74326968Y-101560000D01*
X74314352Y-101415795D01*
X74310635Y-101373308D01*
X74251739Y-101153504D01*
X74155568Y-100947266D01*
X74025047Y-100760861D01*
X74025045Y-100760858D01*
X73864141Y-100599954D01*
X73677734Y-100469432D01*
X73677732Y-100469431D01*
X73471497Y-100373261D01*
X73471488Y-100373258D01*
X73251697Y-100314366D01*
X73251687Y-100314364D01*
X73098692Y-100300979D01*
X73033624Y-100275526D01*
X72992645Y-100218935D01*
X72985500Y-100177451D01*
X72985500Y-98650119D01*
X73005185Y-98583080D01*
X73030833Y-98554267D01*
X73095883Y-98500883D01*
X73132171Y-98456666D01*
X73149267Y-98435835D01*
X73207012Y-98396501D01*
X73245120Y-98390500D01*
X73434880Y-98390500D01*
X73501919Y-98410185D01*
X73530733Y-98435835D01*
X73584116Y-98500883D01*
X73736460Y-98625909D01*
X73736467Y-98625913D01*
X73910266Y-98718811D01*
X73910269Y-98718811D01*
X73910273Y-98718814D01*
X74098868Y-98776024D01*
X74295000Y-98795341D01*
X74491132Y-98776024D01*
X74679727Y-98718814D01*
X74737137Y-98688127D01*
X74805537Y-98673886D01*
X74870781Y-98698885D01*
X74912152Y-98755190D01*
X74916515Y-98824923D01*
X74915365Y-98829576D01*
X74914366Y-98833303D01*
X74914364Y-98833313D01*
X74894532Y-99059998D01*
X74894532Y-99060001D01*
X74914364Y-99286686D01*
X74914366Y-99286697D01*
X74973258Y-99506488D01*
X74973261Y-99506497D01*
X75069431Y-99712732D01*
X75069432Y-99712734D01*
X75199954Y-99899141D01*
X75360858Y-100060045D01*
X75360861Y-100060047D01*
X75547266Y-100190568D01*
X75562975Y-100197893D01*
X75615414Y-100244064D01*
X75634567Y-100311257D01*
X75614352Y-100378138D01*
X75562979Y-100422656D01*
X75547514Y-100429867D01*
X75547512Y-100429868D01*
X75474526Y-100480973D01*
X75474526Y-100480974D01*
X76153553Y-101160000D01*
X76147339Y-101160000D01*
X76045606Y-101187259D01*
X75954394Y-101239920D01*
X75879920Y-101314394D01*
X75827259Y-101405606D01*
X75800000Y-101507339D01*
X75800000Y-101513552D01*
X75120974Y-100834526D01*
X75120973Y-100834526D01*
X75069868Y-100907512D01*
X75069866Y-100907516D01*
X74973734Y-101113673D01*
X74973730Y-101113682D01*
X74914860Y-101333389D01*
X74914858Y-101333400D01*
X74895034Y-101559997D01*
X74895034Y-101560002D01*
X74914858Y-101786599D01*
X74914860Y-101786610D01*
X74973730Y-102006317D01*
X74973735Y-102006331D01*
X75069863Y-102212478D01*
X75120974Y-102285472D01*
X75800000Y-101606446D01*
X75800000Y-101612661D01*
X75827259Y-101714394D01*
X75879920Y-101805606D01*
X75954394Y-101880080D01*
X76045606Y-101932741D01*
X76147339Y-101960000D01*
X76153553Y-101960000D01*
X75474526Y-102639025D01*
X75547513Y-102690132D01*
X75547521Y-102690136D01*
X75753668Y-102786264D01*
X75753682Y-102786269D01*
X75973389Y-102845139D01*
X75973400Y-102845141D01*
X76199998Y-102864966D01*
X76200002Y-102864966D01*
X76426599Y-102845141D01*
X76426610Y-102845139D01*
X76646317Y-102786269D01*
X76646331Y-102786264D01*
X76852478Y-102690136D01*
X76925471Y-102639024D01*
X76246447Y-101960000D01*
X76252661Y-101960000D01*
X76354394Y-101932741D01*
X76445606Y-101880080D01*
X76520080Y-101805606D01*
X76572741Y-101714394D01*
X76600000Y-101612661D01*
X76600000Y-101606447D01*
X77279024Y-102285471D01*
X77330136Y-102212478D01*
X77357618Y-102153544D01*
X77403790Y-102101104D01*
X77470983Y-102081952D01*
X77537864Y-102102167D01*
X77582382Y-102153544D01*
X77609863Y-102212478D01*
X77660974Y-102285472D01*
X78340000Y-101606446D01*
X78340000Y-101612661D01*
X78367259Y-101714394D01*
X78419920Y-101805606D01*
X78494394Y-101880080D01*
X78585606Y-101932741D01*
X78687339Y-101960000D01*
X78693553Y-101960000D01*
X78014526Y-102639025D01*
X78087513Y-102690132D01*
X78087521Y-102690136D01*
X78293668Y-102786264D01*
X78293682Y-102786269D01*
X78513389Y-102845139D01*
X78513400Y-102845141D01*
X78739998Y-102864966D01*
X78740002Y-102864966D01*
X78966599Y-102845141D01*
X78966610Y-102845139D01*
X79186317Y-102786269D01*
X79186331Y-102786264D01*
X79392478Y-102690136D01*
X79465471Y-102639024D01*
X78786447Y-101960000D01*
X78792661Y-101960000D01*
X78894394Y-101932741D01*
X78985606Y-101880080D01*
X79060080Y-101805606D01*
X79112741Y-101714394D01*
X79140000Y-101612661D01*
X79140000Y-101606447D01*
X79819024Y-102285471D01*
X79870136Y-102212478D01*
X79966264Y-102006331D01*
X79966269Y-102006317D01*
X80025139Y-101786610D01*
X80025141Y-101786599D01*
X80044966Y-101560002D01*
X80044966Y-101559997D01*
X80025141Y-101333400D01*
X80025139Y-101333389D01*
X79966269Y-101113682D01*
X79966264Y-101113668D01*
X79870136Y-100907521D01*
X79870132Y-100907513D01*
X79819025Y-100834526D01*
X79140000Y-101513551D01*
X79140000Y-101507339D01*
X79112741Y-101405606D01*
X79060080Y-101314394D01*
X78985606Y-101239920D01*
X78894394Y-101187259D01*
X78792661Y-101160000D01*
X78786448Y-101160000D01*
X79465472Y-100480974D01*
X79392480Y-100429864D01*
X79377024Y-100422657D01*
X79324585Y-100376484D01*
X79305433Y-100309290D01*
X79325649Y-100242409D01*
X79377023Y-100197893D01*
X79392734Y-100190568D01*
X79579139Y-100060047D01*
X79740047Y-99899139D01*
X79870568Y-99712734D01*
X79966739Y-99506496D01*
X80025635Y-99286692D01*
X80045468Y-99060000D01*
X80025635Y-98833308D01*
X79966739Y-98613504D01*
X79870568Y-98407266D01*
X79740047Y-98220861D01*
X79740045Y-98220858D01*
X79579140Y-98059953D01*
X79485354Y-97994284D01*
X79441729Y-97939707D01*
X79434535Y-97870209D01*
X79466058Y-97807854D01*
X79526288Y-97772440D01*
X79543223Y-97769419D01*
X79597379Y-97763596D01*
X79732086Y-97713354D01*
X79732093Y-97713350D01*
X79847187Y-97627190D01*
X79847190Y-97627187D01*
X79933350Y-97512093D01*
X79933354Y-97512086D01*
X79983596Y-97377379D01*
X79983598Y-97377372D01*
X79989999Y-97317844D01*
X79990000Y-97317827D01*
X79990000Y-96770000D01*
X79055686Y-96770000D01*
X79060080Y-96765606D01*
X79112741Y-96674394D01*
X79140000Y-96572661D01*
X79140000Y-96467339D01*
X79112741Y-96365606D01*
X79060080Y-96274394D01*
X79055686Y-96270000D01*
X79990000Y-96270000D01*
X79990000Y-95722172D01*
X79989999Y-95722155D01*
X79983598Y-95662627D01*
X79983596Y-95662620D01*
X79933354Y-95527913D01*
X79933350Y-95527906D01*
X79847190Y-95412812D01*
X79847187Y-95412809D01*
X79732093Y-95326649D01*
X79732086Y-95326645D01*
X79597379Y-95276403D01*
X79597372Y-95276401D01*
X79537844Y-95270000D01*
X79471148Y-95270000D01*
X79404109Y-95250315D01*
X79358354Y-95197511D01*
X79348410Y-95128353D01*
X79377435Y-95064797D01*
X79400020Y-95044428D01*
X79546877Y-94941598D01*
X79701598Y-94786877D01*
X79827102Y-94607639D01*
X79919575Y-94409330D01*
X79976207Y-94197977D01*
X79995277Y-93980000D01*
X79976207Y-93762023D01*
X79927434Y-93580000D01*
X79919577Y-93550677D01*
X79919576Y-93550676D01*
X79919575Y-93550670D01*
X79827102Y-93352362D01*
X79827100Y-93352359D01*
X79827099Y-93352357D01*
X79701599Y-93173124D01*
X79669333Y-93140858D01*
X79546877Y-93018402D01*
X79367639Y-92892898D01*
X79216414Y-92822381D01*
X79163977Y-92776210D01*
X79144825Y-92709016D01*
X79165041Y-92642135D01*
X79216414Y-92597618D01*
X79367639Y-92527102D01*
X79546877Y-92401598D01*
X79701598Y-92246877D01*
X79827102Y-92067639D01*
X79919575Y-91869330D01*
X79976207Y-91657977D01*
X79995277Y-91440000D01*
X79976207Y-91222023D01*
X79959023Y-91157891D01*
X79960685Y-91088043D01*
X79991114Y-91038119D01*
X80368506Y-90660728D01*
X80368511Y-90660724D01*
X80378714Y-90650520D01*
X80378716Y-90650520D01*
X80490520Y-90538716D01*
X80547540Y-90439953D01*
X80548128Y-90438933D01*
X80598702Y-90390732D01*
X80667312Y-90377523D01*
X80732171Y-90403504D01*
X80772688Y-90460426D01*
X80779500Y-90500959D01*
X80779500Y-103515500D01*
X80759815Y-103582539D01*
X80707011Y-103628294D01*
X80655500Y-103639500D01*
X61584500Y-103639500D01*
X61517461Y-103619815D01*
X61471706Y-103567011D01*
X61460500Y-103515500D01*
X61460500Y-102199986D01*
X62200001Y-102199986D01*
X62210494Y-102302697D01*
X62265641Y-102469119D01*
X62265643Y-102469124D01*
X62357684Y-102618345D01*
X62481654Y-102742315D01*
X62630875Y-102834356D01*
X62630880Y-102834358D01*
X62797302Y-102889505D01*
X62797309Y-102889506D01*
X62900019Y-102899999D01*
X63249999Y-102899999D01*
X63750000Y-102899999D01*
X64099972Y-102899999D01*
X64099986Y-102899998D01*
X64202697Y-102889505D01*
X64369119Y-102834358D01*
X64369124Y-102834356D01*
X64518345Y-102742315D01*
X64642315Y-102618345D01*
X64734356Y-102469124D01*
X64734358Y-102469119D01*
X64789505Y-102302697D01*
X64789506Y-102302690D01*
X64799999Y-102199986D01*
X64800000Y-102199973D01*
X64800000Y-101850000D01*
X63750000Y-101850000D01*
X63750000Y-102899999D01*
X63249999Y-102899999D01*
X63250000Y-102899998D01*
X63250000Y-101850000D01*
X62200001Y-101850000D01*
X62200001Y-102199986D01*
X61460500Y-102199986D01*
X61460500Y-101560504D01*
X63200000Y-101560504D01*
X63200000Y-101639496D01*
X63220444Y-101715796D01*
X63259940Y-101784205D01*
X63315795Y-101840060D01*
X63384204Y-101879556D01*
X63460504Y-101900000D01*
X63539496Y-101900000D01*
X63615796Y-101879556D01*
X63684205Y-101840060D01*
X63740060Y-101784205D01*
X63779556Y-101715796D01*
X63800000Y-101639496D01*
X63800000Y-101560504D01*
X63779556Y-101484204D01*
X63740060Y-101415795D01*
X63684205Y-101359940D01*
X63666988Y-101350000D01*
X63750000Y-101350000D01*
X64799999Y-101350000D01*
X64799999Y-101000028D01*
X64799998Y-101000013D01*
X64789505Y-100897302D01*
X64734358Y-100730880D01*
X64734356Y-100730875D01*
X64642315Y-100581654D01*
X64518345Y-100457684D01*
X64369124Y-100365643D01*
X64369119Y-100365641D01*
X64202697Y-100310494D01*
X64202690Y-100310493D01*
X64099986Y-100300000D01*
X63750000Y-100300000D01*
X63750000Y-101350000D01*
X63666988Y-101350000D01*
X63615796Y-101320444D01*
X63539496Y-101300000D01*
X63460504Y-101300000D01*
X63384204Y-101320444D01*
X63315795Y-101359940D01*
X63259940Y-101415795D01*
X63220444Y-101484204D01*
X63200000Y-101560504D01*
X61460500Y-101560504D01*
X61460500Y-101000013D01*
X62200000Y-101000013D01*
X62200000Y-101350000D01*
X63250000Y-101350000D01*
X63250000Y-100300000D01*
X62900028Y-100300000D01*
X62900012Y-100300001D01*
X62797302Y-100310494D01*
X62630880Y-100365641D01*
X62630875Y-100365643D01*
X62481654Y-100457684D01*
X62357684Y-100581654D01*
X62265643Y-100730875D01*
X62265641Y-100730880D01*
X62210494Y-100897302D01*
X62210493Y-100897309D01*
X62200000Y-101000013D01*
X61460500Y-101000013D01*
X61460500Y-75599983D01*
X62199500Y-75599983D01*
X62199500Y-76800001D01*
X62199501Y-76800018D01*
X62210000Y-76902796D01*
X62210001Y-76902799D01*
X62260751Y-77055950D01*
X62265186Y-77069334D01*
X62357288Y-77218656D01*
X62481344Y-77342712D01*
X62630666Y-77434814D01*
X62797203Y-77489999D01*
X62899991Y-77500500D01*
X64100008Y-77500499D01*
X64202797Y-77489999D01*
X64369334Y-77434814D01*
X64518656Y-77342712D01*
X64642712Y-77218656D01*
X64734814Y-77069334D01*
X64789999Y-76902797D01*
X64800500Y-76800009D01*
X64800499Y-75599992D01*
X64789999Y-75497203D01*
X64734814Y-75330666D01*
X64642712Y-75181344D01*
X64518656Y-75057288D01*
X64409858Y-74990181D01*
X64369336Y-74965187D01*
X64369331Y-74965185D01*
X64322431Y-74949644D01*
X64202797Y-74910001D01*
X64202795Y-74910000D01*
X64100010Y-74899500D01*
X62899998Y-74899500D01*
X62899981Y-74899501D01*
X62797203Y-74910000D01*
X62797200Y-74910001D01*
X62630668Y-74965185D01*
X62630663Y-74965187D01*
X62481342Y-75057289D01*
X62357289Y-75181342D01*
X62265187Y-75330663D01*
X62265185Y-75330668D01*
X62258072Y-75352135D01*
X62210001Y-75497203D01*
X62210001Y-75497204D01*
X62210000Y-75497204D01*
X62199500Y-75599983D01*
X61460500Y-75599983D01*
X61460500Y-71744500D01*
X61480185Y-71677461D01*
X61532989Y-71631706D01*
X61584500Y-71620500D01*
X69226570Y-71620500D01*
X69293609Y-71640185D01*
G37*
%TD.AperFunction*%
%TA.AperFunction,Conductor*%
G36*
X77537865Y-99603348D02*
G01*
X77582382Y-99654725D01*
X77609429Y-99712728D01*
X77609432Y-99712734D01*
X77739954Y-99899141D01*
X77900858Y-100060045D01*
X77900861Y-100060047D01*
X78087266Y-100190568D01*
X78102975Y-100197893D01*
X78155414Y-100244064D01*
X78174567Y-100311257D01*
X78154352Y-100378138D01*
X78102979Y-100422656D01*
X78087514Y-100429867D01*
X78087512Y-100429868D01*
X78014526Y-100480973D01*
X78014526Y-100480974D01*
X78693553Y-101160000D01*
X78687339Y-101160000D01*
X78585606Y-101187259D01*
X78494394Y-101239920D01*
X78419920Y-101314394D01*
X78367259Y-101405606D01*
X78340000Y-101507339D01*
X78340000Y-101513552D01*
X77660974Y-100834526D01*
X77660973Y-100834526D01*
X77609868Y-100907512D01*
X77582382Y-100966457D01*
X77536209Y-101018895D01*
X77469015Y-101038047D01*
X77402134Y-101017831D01*
X77357618Y-100966456D01*
X77330134Y-100907517D01*
X77330132Y-100907513D01*
X77279025Y-100834526D01*
X76600000Y-101513551D01*
X76600000Y-101507339D01*
X76572741Y-101405606D01*
X76520080Y-101314394D01*
X76445606Y-101239920D01*
X76354394Y-101187259D01*
X76252661Y-101160000D01*
X76246448Y-101160000D01*
X76925472Y-100480974D01*
X76852480Y-100429864D01*
X76837024Y-100422657D01*
X76784585Y-100376484D01*
X76765433Y-100309290D01*
X76785649Y-100242409D01*
X76837023Y-100197893D01*
X76852734Y-100190568D01*
X77039139Y-100060047D01*
X77200047Y-99899139D01*
X77330568Y-99712734D01*
X77357618Y-99654724D01*
X77403790Y-99602285D01*
X77470983Y-99583133D01*
X77537865Y-99603348D01*
G37*
%TD.AperFunction*%
%TA.AperFunction,Conductor*%
G36*
X66059648Y-85710185D02*
G01*
X66105403Y-85762989D01*
X66115347Y-85832147D01*
X66104991Y-85866905D01*
X66083261Y-85913502D01*
X66083258Y-85913511D01*
X66024366Y-86133302D01*
X66024364Y-86133313D01*
X66004532Y-86359998D01*
X66004532Y-86360001D01*
X66024364Y-86586686D01*
X66024366Y-86586697D01*
X66083258Y-86806488D01*
X66083261Y-86806497D01*
X66179431Y-87012732D01*
X66179432Y-87012734D01*
X66309954Y-87199141D01*
X66470858Y-87360045D01*
X66470861Y-87360047D01*
X66657266Y-87490568D01*
X66714683Y-87517342D01*
X66715275Y-87517618D01*
X66767714Y-87563791D01*
X66786866Y-87630984D01*
X66766650Y-87697865D01*
X66715275Y-87742382D01*
X66657267Y-87769431D01*
X66657265Y-87769432D01*
X66470858Y-87899954D01*
X66309954Y-88060858D01*
X66179432Y-88247265D01*
X66179431Y-88247267D01*
X66083261Y-88453502D01*
X66083258Y-88453511D01*
X66024366Y-88673302D01*
X66024364Y-88673313D01*
X66004532Y-88899998D01*
X66004532Y-88900001D01*
X66024364Y-89126686D01*
X66024366Y-89126697D01*
X66083258Y-89346488D01*
X66083261Y-89346497D01*
X66179431Y-89552732D01*
X66179432Y-89552734D01*
X66309954Y-89739141D01*
X66470858Y-89900045D01*
X66470861Y-89900047D01*
X66657266Y-90030568D01*
X66715275Y-90057618D01*
X66767714Y-90103791D01*
X66786866Y-90170984D01*
X66766650Y-90237865D01*
X66715275Y-90282382D01*
X66657267Y-90309431D01*
X66657265Y-90309432D01*
X66470860Y-90439953D01*
X66309954Y-90600858D01*
X66179432Y-90787265D01*
X66179431Y-90787267D01*
X66083261Y-90993502D01*
X66083258Y-90993511D01*
X66024366Y-91213302D01*
X66024364Y-91213313D01*
X66004532Y-91439998D01*
X66004532Y-91440001D01*
X66024364Y-91666686D01*
X66024366Y-91666697D01*
X66083258Y-91886488D01*
X66083261Y-91886497D01*
X66179431Y-92092732D01*
X66179432Y-92092734D01*
X66309954Y-92279141D01*
X66470858Y-92440045D01*
X66470861Y-92440047D01*
X66657266Y-92570568D01*
X66715865Y-92597893D01*
X66768305Y-92644065D01*
X66787457Y-92711258D01*
X66767242Y-92778139D01*
X66715867Y-92822657D01*
X66657515Y-92849867D01*
X66471179Y-92980342D01*
X66310342Y-93141179D01*
X66179865Y-93327517D01*
X66083734Y-93533673D01*
X66083730Y-93533682D01*
X66031127Y-93729999D01*
X66031128Y-93730000D01*
X66994314Y-93730000D01*
X66989920Y-93734394D01*
X66937259Y-93825606D01*
X66910000Y-93927339D01*
X66910000Y-94032661D01*
X66937259Y-94134394D01*
X66989920Y-94225606D01*
X66994314Y-94230000D01*
X66031128Y-94230000D01*
X66083730Y-94426317D01*
X66083734Y-94426326D01*
X66179865Y-94632482D01*
X66310342Y-94818820D01*
X66471179Y-94979657D01*
X66657517Y-95110134D01*
X66863673Y-95206265D01*
X66863682Y-95206269D01*
X67059999Y-95258872D01*
X67060000Y-95258871D01*
X67060000Y-94295686D01*
X67064394Y-94300080D01*
X67155606Y-94352741D01*
X67257339Y-94380000D01*
X67362661Y-94380000D01*
X67464394Y-94352741D01*
X67555606Y-94300080D01*
X67560000Y-94295686D01*
X67560000Y-95260805D01*
X67597992Y-95312836D01*
X67602147Y-95382582D01*
X67568984Y-95442465D01*
X67128270Y-95883181D01*
X67066947Y-95916666D01*
X67040589Y-95919500D01*
X64731692Y-95919500D01*
X64664653Y-95899815D01*
X64630119Y-95866625D01*
X64500047Y-95680861D01*
X64500045Y-95680858D01*
X64339141Y-95519954D01*
X64152734Y-95389432D01*
X64152728Y-95389429D01*
X64094725Y-95362382D01*
X64042285Y-95316210D01*
X64023133Y-95249017D01*
X64043348Y-95182135D01*
X64094725Y-95137618D01*
X64152734Y-95110568D01*
X64339139Y-94980047D01*
X64500047Y-94819139D01*
X64630568Y-94632734D01*
X64726739Y-94426496D01*
X64785635Y-94206692D01*
X64805468Y-93980000D01*
X64785635Y-93753308D01*
X64738693Y-93578117D01*
X64726741Y-93533511D01*
X64726738Y-93533502D01*
X64656552Y-93382989D01*
X64630568Y-93327266D01*
X64500047Y-93140861D01*
X64500045Y-93140858D01*
X64339140Y-92979953D01*
X64153377Y-92849881D01*
X64109752Y-92795304D01*
X64100500Y-92748306D01*
X64100500Y-86660097D01*
X64120185Y-86593058D01*
X64136819Y-86572416D01*
X64982416Y-85726819D01*
X65043739Y-85693334D01*
X65070097Y-85690500D01*
X65992609Y-85690500D01*
X66059648Y-85710185D01*
G37*
%TD.AperFunction*%
%TA.AperFunction,Conductor*%
G36*
X68556765Y-92173739D02*
G01*
X68592180Y-92233969D01*
X68595595Y-92255313D01*
X68599644Y-92311940D01*
X68625970Y-92401593D01*
X68637260Y-92440045D01*
X68640182Y-92449994D01*
X68717967Y-92571030D01*
X68717971Y-92571034D01*
X68748967Y-92597892D01*
X68826706Y-92665254D01*
X68829958Y-92666739D01*
X68957580Y-92725023D01*
X68957583Y-92725023D01*
X68957584Y-92725024D01*
X69100000Y-92745500D01*
X69100003Y-92745500D01*
X69966587Y-92745500D01*
X70033626Y-92765185D01*
X70079381Y-92817989D01*
X70089325Y-92887147D01*
X70060300Y-92950703D01*
X70054268Y-92957181D01*
X68772465Y-94238983D01*
X68711142Y-94272468D01*
X68641450Y-94267484D01*
X68590752Y-94230000D01*
X67625686Y-94230000D01*
X67630080Y-94225606D01*
X67682741Y-94134394D01*
X67710000Y-94032661D01*
X67710000Y-93927339D01*
X67682741Y-93825606D01*
X67630080Y-93734394D01*
X67625686Y-93730000D01*
X68588872Y-93730000D01*
X68588872Y-93729999D01*
X68536269Y-93533682D01*
X68536265Y-93533673D01*
X68440134Y-93327517D01*
X68309657Y-93141179D01*
X68148820Y-92980342D01*
X67962482Y-92849865D01*
X67904133Y-92822657D01*
X67851694Y-92776484D01*
X67832542Y-92709291D01*
X67852758Y-92642410D01*
X67904129Y-92597895D01*
X67962734Y-92570568D01*
X68149139Y-92440047D01*
X68310047Y-92279139D01*
X68370336Y-92193035D01*
X68424912Y-92149411D01*
X68494410Y-92142217D01*
X68556765Y-92173739D01*
G37*
%TD.AperFunction*%
%TA.AperFunction,Conductor*%
G36*
X73680199Y-85710185D02*
G01*
X73725954Y-85762989D01*
X73735898Y-85832147D01*
X73725542Y-85866904D01*
X73703735Y-85913668D01*
X73703730Y-85913682D01*
X73651127Y-86109999D01*
X73651128Y-86110000D01*
X74614314Y-86110000D01*
X74609920Y-86114394D01*
X74557259Y-86205606D01*
X74530000Y-86307339D01*
X74530000Y-86412661D01*
X74557259Y-86514394D01*
X74609920Y-86605606D01*
X74614314Y-86610000D01*
X73651128Y-86610000D01*
X73703730Y-86806317D01*
X73703734Y-86806326D01*
X73799865Y-87012482D01*
X73930342Y-87198820D01*
X74091179Y-87359657D01*
X74277518Y-87490134D01*
X74277520Y-87490135D01*
X74335865Y-87517342D01*
X74388305Y-87563514D01*
X74407457Y-87630707D01*
X74387242Y-87697589D01*
X74335867Y-87742105D01*
X74277268Y-87769431D01*
X74277264Y-87769433D01*
X74090858Y-87899954D01*
X73929954Y-88060858D01*
X73799432Y-88247265D01*
X73799431Y-88247267D01*
X73703261Y-88453502D01*
X73703258Y-88453511D01*
X73644366Y-88673302D01*
X73644364Y-88673313D01*
X73624532Y-88899998D01*
X73624532Y-88900001D01*
X73644364Y-89126686D01*
X73644366Y-89126697D01*
X73703258Y-89346488D01*
X73703261Y-89346497D01*
X73799431Y-89552732D01*
X73799432Y-89552734D01*
X73929954Y-89739141D01*
X74090858Y-89900045D01*
X74090861Y-89900047D01*
X74277266Y-90030568D01*
X74335275Y-90057618D01*
X74387714Y-90103791D01*
X74406866Y-90170984D01*
X74386650Y-90237865D01*
X74335275Y-90282382D01*
X74277267Y-90309431D01*
X74277265Y-90309432D01*
X74090860Y-90439953D01*
X73929954Y-90600858D01*
X73799432Y-90787265D01*
X73799431Y-90787267D01*
X73703261Y-90993502D01*
X73703258Y-90993511D01*
X73644366Y-91213302D01*
X73644364Y-91213313D01*
X73624532Y-91439998D01*
X73624532Y-91440001D01*
X73644364Y-91666686D01*
X73644366Y-91666697D01*
X73703258Y-91886488D01*
X73703261Y-91886496D01*
X73724990Y-91933094D01*
X73724991Y-91933095D01*
X73735483Y-92002172D01*
X73706964Y-92065956D01*
X73648487Y-92104196D01*
X73612609Y-92109500D01*
X72179500Y-92109500D01*
X72112461Y-92089815D01*
X72066706Y-92037011D01*
X72055500Y-91985500D01*
X72055500Y-90740000D01*
X72050355Y-90668060D01*
X72048203Y-90660732D01*
X72041929Y-90639365D01*
X72009819Y-90530008D01*
X71932031Y-90408968D01*
X71925725Y-90403504D01*
X71823299Y-90314750D01*
X71823297Y-90314748D01*
X71823294Y-90314746D01*
X71823291Y-90314745D01*
X71823289Y-90314743D01*
X71806447Y-90307052D01*
X71753643Y-90261297D01*
X71733959Y-90194257D01*
X71753644Y-90127218D01*
X71790918Y-90089943D01*
X71881032Y-90032031D01*
X71975254Y-89923294D01*
X72035024Y-89792416D01*
X72055500Y-89650000D01*
X72055500Y-88150000D01*
X72050355Y-88078060D01*
X72009819Y-87940008D01*
X71932031Y-87818968D01*
X71823294Y-87724746D01*
X71823292Y-87724745D01*
X71818865Y-87720909D01*
X71781091Y-87662130D01*
X71781091Y-87592261D01*
X71818866Y-87533483D01*
X71833021Y-87522885D01*
X71881032Y-87492031D01*
X71975254Y-87383294D01*
X72035024Y-87252416D01*
X72055500Y-87110000D01*
X72055500Y-85814500D01*
X72075185Y-85747461D01*
X72127989Y-85701706D01*
X72179500Y-85690500D01*
X73613160Y-85690500D01*
X73680199Y-85710185D01*
G37*
%TD.AperFunction*%
%TA.AperFunction,Conductor*%
G36*
X79379208Y-85105590D02*
G01*
X79408237Y-85169144D01*
X79409500Y-85186799D01*
X79409500Y-89869902D01*
X79389815Y-89936941D01*
X79373181Y-89957583D01*
X79141881Y-90188882D01*
X79080558Y-90222367D01*
X79022108Y-90220976D01*
X78957984Y-90203795D01*
X78957986Y-90203795D01*
X78957977Y-90203793D01*
X78957973Y-90203792D01*
X78957970Y-90203792D01*
X78740002Y-90184723D01*
X78739998Y-90184723D01*
X78614083Y-90195739D01*
X78522023Y-90203793D01*
X78522020Y-90203793D01*
X78310677Y-90260422D01*
X78310668Y-90260426D01*
X78112361Y-90352898D01*
X78112357Y-90352900D01*
X77933121Y-90478402D01*
X77778402Y-90633121D01*
X77652900Y-90812357D01*
X77652898Y-90812361D01*
X77560426Y-91010668D01*
X77560422Y-91010677D01*
X77503793Y-91222020D01*
X77503793Y-91222024D01*
X77484723Y-91439997D01*
X77484723Y-91440002D01*
X77503793Y-91657975D01*
X77503793Y-91657979D01*
X77560422Y-91869322D01*
X77560424Y-91869326D01*
X77560425Y-91869330D01*
X77590159Y-91933094D01*
X77600651Y-92002172D01*
X77572131Y-92065956D01*
X77513655Y-92104195D01*
X77477777Y-92109499D01*
X77383347Y-92109499D01*
X77383331Y-92109500D01*
X76247391Y-92109500D01*
X76180352Y-92089815D01*
X76134597Y-92037011D01*
X76124653Y-91967853D01*
X76135009Y-91933095D01*
X76156739Y-91886496D01*
X76215635Y-91666692D01*
X76235468Y-91440000D01*
X76215635Y-91213308D01*
X76168693Y-91038117D01*
X76156741Y-90993511D01*
X76156738Y-90993502D01*
X76091920Y-90854500D01*
X76060568Y-90787266D01*
X75952637Y-90633123D01*
X75930045Y-90600858D01*
X75769140Y-90439953D01*
X75582734Y-90309432D01*
X75582728Y-90309429D01*
X75524725Y-90282382D01*
X75472285Y-90236210D01*
X75453133Y-90169017D01*
X75473348Y-90102135D01*
X75524725Y-90057618D01*
X75582734Y-90030568D01*
X75769139Y-89900047D01*
X75930047Y-89739139D01*
X76041458Y-89580024D01*
X76096032Y-89536402D01*
X76165530Y-89529208D01*
X76227885Y-89560730D01*
X76253947Y-89603093D01*
X76256499Y-89601928D01*
X76260182Y-89609994D01*
X76337967Y-89731030D01*
X76337971Y-89731034D01*
X76446700Y-89825249D01*
X76446706Y-89825254D01*
X76487174Y-89843735D01*
X76577580Y-89885023D01*
X76577583Y-89885023D01*
X76577584Y-89885024D01*
X76720000Y-89905500D01*
X76720003Y-89905500D01*
X78220000Y-89905500D01*
X78291940Y-89900355D01*
X78429992Y-89859819D01*
X78551032Y-89782031D01*
X78645254Y-89673294D01*
X78705024Y-89542416D01*
X78725500Y-89400000D01*
X78725500Y-88250000D01*
X78725499Y-88249997D01*
X78725499Y-88249978D01*
X78719076Y-88169668D01*
X78719075Y-88169665D01*
X78719075Y-88169662D01*
X78710212Y-88141254D01*
X78705848Y-88086682D01*
X78707088Y-88078059D01*
X78725500Y-87950000D01*
X78725500Y-86950000D01*
X78720355Y-86878060D01*
X78679819Y-86740008D01*
X78666771Y-86719705D01*
X78602032Y-86618969D01*
X78602028Y-86618965D01*
X78493299Y-86524750D01*
X78493297Y-86524748D01*
X78493294Y-86524746D01*
X78493290Y-86524744D01*
X78362419Y-86464976D01*
X78362414Y-86464975D01*
X78220000Y-86444500D01*
X76720000Y-86444500D01*
X76719997Y-86444500D01*
X76648059Y-86449644D01*
X76510005Y-86490182D01*
X76388969Y-86567967D01*
X76388966Y-86567970D01*
X76375894Y-86583056D01*
X76317115Y-86620828D01*
X76247245Y-86620826D01*
X76230401Y-86610000D01*
X75245686Y-86610000D01*
X75250080Y-86605606D01*
X75302741Y-86514394D01*
X75330000Y-86412661D01*
X75330000Y-86307339D01*
X75302741Y-86205606D01*
X75250080Y-86114394D01*
X75245686Y-86110000D01*
X76208872Y-86110000D01*
X76208872Y-86109999D01*
X76156269Y-85913682D01*
X76156264Y-85913668D01*
X76134458Y-85866904D01*
X76123966Y-85797826D01*
X76152486Y-85734043D01*
X76210963Y-85695804D01*
X76246840Y-85690500D01*
X78068331Y-85690500D01*
X78068347Y-85690501D01*
X78075943Y-85690501D01*
X78234054Y-85690501D01*
X78234057Y-85690501D01*
X78386785Y-85649577D01*
X78455334Y-85610000D01*
X78523716Y-85570520D01*
X78635520Y-85458716D01*
X78635520Y-85458714D01*
X78645721Y-85448514D01*
X78645724Y-85448509D01*
X78982417Y-85111816D01*
X79043739Y-85078334D01*
X79070097Y-85075500D01*
X79170000Y-85075500D01*
X79241940Y-85070355D01*
X79250559Y-85067823D01*
X79320427Y-85067820D01*
X79379208Y-85105590D01*
G37*
%TD.AperFunction*%
%TA.AperFunction,Conductor*%
G36*
X71792426Y-71640185D02*
G01*
X71838181Y-71692989D01*
X71848125Y-71762147D01*
X71819100Y-71825703D01*
X71777792Y-71856882D01*
X71697267Y-71894431D01*
X71697265Y-71894432D01*
X71510858Y-72024954D01*
X71349954Y-72185858D01*
X71219432Y-72372265D01*
X71219429Y-72372270D01*
X71212104Y-72387979D01*
X71165929Y-72440417D01*
X71098735Y-72459566D01*
X71031855Y-72439347D01*
X70987341Y-72387973D01*
X70980133Y-72372515D01*
X70980132Y-72372513D01*
X70929025Y-72299526D01*
X70250000Y-72978551D01*
X70250000Y-72972339D01*
X70222741Y-72870606D01*
X70170080Y-72779394D01*
X70095606Y-72704920D01*
X70004394Y-72652259D01*
X69902661Y-72625000D01*
X69896448Y-72625000D01*
X70575472Y-71945974D01*
X70502478Y-71894863D01*
X70421027Y-71856882D01*
X70368587Y-71810710D01*
X70349435Y-71743517D01*
X70369651Y-71676635D01*
X70422816Y-71631301D01*
X70473431Y-71620500D01*
X71725387Y-71620500D01*
X71792426Y-71640185D01*
G37*
%TD.AperFunction*%
%TD*%
M02*
