%TF.GenerationSoftware,KiCad,Pcbnew,8.0.6*%
%TF.CreationDate,2024-11-20T20:55:38+11:00*%
%TF.ProjectId,clock-divider,636c6f63-6b2d-4646-9976-696465722e6b,1*%
%TF.SameCoordinates,Original*%
%TF.FileFunction,Legend,Top*%
%TF.FilePolarity,Positive*%
%FSLAX46Y46*%
G04 Gerber Fmt 4.6, Leading zero omitted, Abs format (unit mm)*
G04 Created by KiCad (PCBNEW 8.0.6) date 2024-11-20 20:55:38*
%MOMM*%
%LPD*%
G01*
G04 APERTURE LIST*
%ADD10C,0.150000*%
%ADD11C,0.120000*%
G04 APERTURE END LIST*
D10*
X70358095Y-93419819D02*
X70358095Y-94229342D01*
X70358095Y-94229342D02*
X70405714Y-94324580D01*
X70405714Y-94324580D02*
X70453333Y-94372200D01*
X70453333Y-94372200D02*
X70548571Y-94419819D01*
X70548571Y-94419819D02*
X70739047Y-94419819D01*
X70739047Y-94419819D02*
X70834285Y-94372200D01*
X70834285Y-94372200D02*
X70881904Y-94324580D01*
X70881904Y-94324580D02*
X70929523Y-94229342D01*
X70929523Y-94229342D02*
X70929523Y-93419819D01*
X71929523Y-94419819D02*
X71358095Y-94419819D01*
X71643809Y-94419819D02*
X71643809Y-93419819D01*
X71643809Y-93419819D02*
X71548571Y-93562676D01*
X71548571Y-93562676D02*
X71453333Y-93657914D01*
X71453333Y-93657914D02*
X71358095Y-93705533D01*
X67143333Y-73384580D02*
X67095714Y-73432200D01*
X67095714Y-73432200D02*
X66952857Y-73479819D01*
X66952857Y-73479819D02*
X66857619Y-73479819D01*
X66857619Y-73479819D02*
X66714762Y-73432200D01*
X66714762Y-73432200D02*
X66619524Y-73336961D01*
X66619524Y-73336961D02*
X66571905Y-73241723D01*
X66571905Y-73241723D02*
X66524286Y-73051247D01*
X66524286Y-73051247D02*
X66524286Y-72908390D01*
X66524286Y-72908390D02*
X66571905Y-72717914D01*
X66571905Y-72717914D02*
X66619524Y-72622676D01*
X66619524Y-72622676D02*
X66714762Y-72527438D01*
X66714762Y-72527438D02*
X66857619Y-72479819D01*
X66857619Y-72479819D02*
X66952857Y-72479819D01*
X66952857Y-72479819D02*
X67095714Y-72527438D01*
X67095714Y-72527438D02*
X67143333Y-72575057D01*
X67476667Y-72479819D02*
X68095714Y-72479819D01*
X68095714Y-72479819D02*
X67762381Y-72860771D01*
X67762381Y-72860771D02*
X67905238Y-72860771D01*
X67905238Y-72860771D02*
X68000476Y-72908390D01*
X68000476Y-72908390D02*
X68048095Y-72956009D01*
X68048095Y-72956009D02*
X68095714Y-73051247D01*
X68095714Y-73051247D02*
X68095714Y-73289342D01*
X68095714Y-73289342D02*
X68048095Y-73384580D01*
X68048095Y-73384580D02*
X68000476Y-73432200D01*
X68000476Y-73432200D02*
X67905238Y-73479819D01*
X67905238Y-73479819D02*
X67619524Y-73479819D01*
X67619524Y-73479819D02*
X67524286Y-73432200D01*
X67524286Y-73432200D02*
X67476667Y-73384580D01*
X63954819Y-91606666D02*
X63478628Y-91939999D01*
X63954819Y-92178094D02*
X62954819Y-92178094D01*
X62954819Y-92178094D02*
X62954819Y-91797142D01*
X62954819Y-91797142D02*
X63002438Y-91701904D01*
X63002438Y-91701904D02*
X63050057Y-91654285D01*
X63050057Y-91654285D02*
X63145295Y-91606666D01*
X63145295Y-91606666D02*
X63288152Y-91606666D01*
X63288152Y-91606666D02*
X63383390Y-91654285D01*
X63383390Y-91654285D02*
X63431009Y-91701904D01*
X63431009Y-91701904D02*
X63478628Y-91797142D01*
X63478628Y-91797142D02*
X63478628Y-92178094D01*
X62954819Y-91273332D02*
X62954819Y-90654285D01*
X62954819Y-90654285D02*
X63335771Y-90987618D01*
X63335771Y-90987618D02*
X63335771Y-90844761D01*
X63335771Y-90844761D02*
X63383390Y-90749523D01*
X63383390Y-90749523D02*
X63431009Y-90701904D01*
X63431009Y-90701904D02*
X63526247Y-90654285D01*
X63526247Y-90654285D02*
X63764342Y-90654285D01*
X63764342Y-90654285D02*
X63859580Y-90701904D01*
X63859580Y-90701904D02*
X63907200Y-90749523D01*
X63907200Y-90749523D02*
X63954819Y-90844761D01*
X63954819Y-90844761D02*
X63954819Y-91130475D01*
X63954819Y-91130475D02*
X63907200Y-91225713D01*
X63907200Y-91225713D02*
X63859580Y-91273332D01*
X80560057Y-88995238D02*
X80512438Y-89090476D01*
X80512438Y-89090476D02*
X80417200Y-89185714D01*
X80417200Y-89185714D02*
X80274342Y-89328571D01*
X80274342Y-89328571D02*
X80226723Y-89423809D01*
X80226723Y-89423809D02*
X80226723Y-89519047D01*
X80464819Y-89471428D02*
X80417200Y-89566666D01*
X80417200Y-89566666D02*
X80321961Y-89661904D01*
X80321961Y-89661904D02*
X80131485Y-89709523D01*
X80131485Y-89709523D02*
X79798152Y-89709523D01*
X79798152Y-89709523D02*
X79607676Y-89661904D01*
X79607676Y-89661904D02*
X79512438Y-89566666D01*
X79512438Y-89566666D02*
X79464819Y-89471428D01*
X79464819Y-89471428D02*
X79464819Y-89280952D01*
X79464819Y-89280952D02*
X79512438Y-89185714D01*
X79512438Y-89185714D02*
X79607676Y-89090476D01*
X79607676Y-89090476D02*
X79798152Y-89042857D01*
X79798152Y-89042857D02*
X80131485Y-89042857D01*
X80131485Y-89042857D02*
X80321961Y-89090476D01*
X80321961Y-89090476D02*
X80417200Y-89185714D01*
X80417200Y-89185714D02*
X80464819Y-89280952D01*
X80464819Y-89280952D02*
X80464819Y-89471428D01*
X80464819Y-88090476D02*
X80464819Y-88661904D01*
X80464819Y-88376190D02*
X79464819Y-88376190D01*
X79464819Y-88376190D02*
X79607676Y-88471428D01*
X79607676Y-88471428D02*
X79702914Y-88566666D01*
X79702914Y-88566666D02*
X79750533Y-88661904D01*
X69683333Y-103959819D02*
X69350000Y-103483628D01*
X69111905Y-103959819D02*
X69111905Y-102959819D01*
X69111905Y-102959819D02*
X69492857Y-102959819D01*
X69492857Y-102959819D02*
X69588095Y-103007438D01*
X69588095Y-103007438D02*
X69635714Y-103055057D01*
X69635714Y-103055057D02*
X69683333Y-103150295D01*
X69683333Y-103150295D02*
X69683333Y-103293152D01*
X69683333Y-103293152D02*
X69635714Y-103388390D01*
X69635714Y-103388390D02*
X69588095Y-103436009D01*
X69588095Y-103436009D02*
X69492857Y-103483628D01*
X69492857Y-103483628D02*
X69111905Y-103483628D01*
X70064286Y-103055057D02*
X70111905Y-103007438D01*
X70111905Y-103007438D02*
X70207143Y-102959819D01*
X70207143Y-102959819D02*
X70445238Y-102959819D01*
X70445238Y-102959819D02*
X70540476Y-103007438D01*
X70540476Y-103007438D02*
X70588095Y-103055057D01*
X70588095Y-103055057D02*
X70635714Y-103150295D01*
X70635714Y-103150295D02*
X70635714Y-103245533D01*
X70635714Y-103245533D02*
X70588095Y-103388390D01*
X70588095Y-103388390D02*
X70016667Y-103959819D01*
X70016667Y-103959819D02*
X70635714Y-103959819D01*
X77829580Y-103036666D02*
X77877200Y-103084285D01*
X77877200Y-103084285D02*
X77924819Y-103227142D01*
X77924819Y-103227142D02*
X77924819Y-103322380D01*
X77924819Y-103322380D02*
X77877200Y-103465237D01*
X77877200Y-103465237D02*
X77781961Y-103560475D01*
X77781961Y-103560475D02*
X77686723Y-103608094D01*
X77686723Y-103608094D02*
X77496247Y-103655713D01*
X77496247Y-103655713D02*
X77353390Y-103655713D01*
X77353390Y-103655713D02*
X77162914Y-103608094D01*
X77162914Y-103608094D02*
X77067676Y-103560475D01*
X77067676Y-103560475D02*
X76972438Y-103465237D01*
X76972438Y-103465237D02*
X76924819Y-103322380D01*
X76924819Y-103322380D02*
X76924819Y-103227142D01*
X76924819Y-103227142D02*
X76972438Y-103084285D01*
X76972438Y-103084285D02*
X77020057Y-103036666D01*
X77924819Y-102084285D02*
X77924819Y-102655713D01*
X77924819Y-102369999D02*
X76924819Y-102369999D01*
X76924819Y-102369999D02*
X77067676Y-102465237D01*
X77067676Y-102465237D02*
X77162914Y-102560475D01*
X77162914Y-102560475D02*
X77210533Y-102655713D01*
X73183809Y-96498628D02*
X73183809Y-96974819D01*
X72850476Y-95974819D02*
X73183809Y-96498628D01*
X73183809Y-96498628D02*
X73517142Y-95974819D01*
X74374285Y-96974819D02*
X73802857Y-96974819D01*
X74088571Y-96974819D02*
X74088571Y-95974819D01*
X74088571Y-95974819D02*
X73993333Y-96117676D01*
X73993333Y-96117676D02*
X73898095Y-96212914D01*
X73898095Y-96212914D02*
X73802857Y-96260533D01*
X69034819Y-96686666D02*
X68558628Y-97019999D01*
X69034819Y-97258094D02*
X68034819Y-97258094D01*
X68034819Y-97258094D02*
X68034819Y-96877142D01*
X68034819Y-96877142D02*
X68082438Y-96781904D01*
X68082438Y-96781904D02*
X68130057Y-96734285D01*
X68130057Y-96734285D02*
X68225295Y-96686666D01*
X68225295Y-96686666D02*
X68368152Y-96686666D01*
X68368152Y-96686666D02*
X68463390Y-96734285D01*
X68463390Y-96734285D02*
X68511009Y-96781904D01*
X68511009Y-96781904D02*
X68558628Y-96877142D01*
X68558628Y-96877142D02*
X68558628Y-97258094D01*
X69034819Y-95734285D02*
X69034819Y-96305713D01*
X69034819Y-96019999D02*
X68034819Y-96019999D01*
X68034819Y-96019999D02*
X68177676Y-96115237D01*
X68177676Y-96115237D02*
X68272914Y-96210475D01*
X68272914Y-96210475D02*
X68320533Y-96305713D01*
X80329580Y-103036666D02*
X80377200Y-103084285D01*
X80377200Y-103084285D02*
X80424819Y-103227142D01*
X80424819Y-103227142D02*
X80424819Y-103322380D01*
X80424819Y-103322380D02*
X80377200Y-103465237D01*
X80377200Y-103465237D02*
X80281961Y-103560475D01*
X80281961Y-103560475D02*
X80186723Y-103608094D01*
X80186723Y-103608094D02*
X79996247Y-103655713D01*
X79996247Y-103655713D02*
X79853390Y-103655713D01*
X79853390Y-103655713D02*
X79662914Y-103608094D01*
X79662914Y-103608094D02*
X79567676Y-103560475D01*
X79567676Y-103560475D02*
X79472438Y-103465237D01*
X79472438Y-103465237D02*
X79424819Y-103322380D01*
X79424819Y-103322380D02*
X79424819Y-103227142D01*
X79424819Y-103227142D02*
X79472438Y-103084285D01*
X79472438Y-103084285D02*
X79520057Y-103036666D01*
X79520057Y-102655713D02*
X79472438Y-102608094D01*
X79472438Y-102608094D02*
X79424819Y-102512856D01*
X79424819Y-102512856D02*
X79424819Y-102274761D01*
X79424819Y-102274761D02*
X79472438Y-102179523D01*
X79472438Y-102179523D02*
X79520057Y-102131904D01*
X79520057Y-102131904D02*
X79615295Y-102084285D01*
X79615295Y-102084285D02*
X79710533Y-102084285D01*
X79710533Y-102084285D02*
X79853390Y-102131904D01*
X79853390Y-102131904D02*
X80424819Y-102703332D01*
X80424819Y-102703332D02*
X80424819Y-102084285D01*
D11*
%TO.C,U1*%
X68470000Y-74870000D02*
X68470000Y-95310000D01*
X68470000Y-95310000D02*
X73770000Y-95310000D01*
X70120000Y-74870000D02*
X68470000Y-74870000D01*
X73770000Y-74870000D02*
X72120000Y-74870000D01*
X73770000Y-95310000D02*
X73770000Y-74870000D01*
X72120000Y-74870000D02*
G75*
G02*
X70120000Y-74870000I-1000000J0D01*
G01*
%TO.C,C3*%
X71729000Y-72105000D02*
X70471000Y-72105000D01*
X71729000Y-73945000D02*
X70471000Y-73945000D01*
%TO.C,R3*%
X62528620Y-95324775D02*
G75*
G02*
X64300000Y-95433272I971380J1344775D01*
G01*
%TO.C,Q1*%
X80440000Y-95920000D02*
X80440000Y-92070000D01*
X76140000Y-93980000D02*
G75*
G02*
X77641193Y-91623600I2600000J0D01*
G01*
X77641193Y-96336400D02*
G75*
G02*
X76140000Y-93980000I1098807J2356400D01*
G01*
X79852264Y-91677617D02*
G75*
G02*
X80440000Y-92070000I-1112264J-2302383D01*
G01*
X80440000Y-95920000D02*
G75*
G02*
X79862045Y-96302631I-1700000J1940000D01*
G01*
%TO.C,R2*%
X71680225Y-100628620D02*
G75*
G02*
X71571728Y-102400000I1344775J-971380D01*
G01*
%TO.C,C1*%
X75280000Y-99681000D02*
X75280000Y-100939000D01*
X77120000Y-99681000D02*
X77120000Y-100939000D01*
%TO.C,Y1*%
X69735000Y-97790000D02*
G75*
G02*
X73135000Y-97790000I1700000J0D01*
G01*
X73135000Y-97790000D02*
G75*
G02*
X69735000Y-97790000I-1700000J0D01*
G01*
%TO.C,R1*%
X66338620Y-100404775D02*
G75*
G02*
X68110000Y-100513272I971380J1344775D01*
G01*
%TO.C,C2*%
X77820000Y-99681000D02*
X77820000Y-100939000D01*
X79660000Y-99681000D02*
X79660000Y-100939000D01*
%TD*%
M02*
