M48
; DRILL file {KiCad 8.0.6} date 2024-11-20T20:55:41+1100
; FORMAT={-:-/ absolute / inch / decimal}
; #@! TF.CreationDate,2024-11-20T20:55:41+11:00
; #@! TF.GenerationSoftware,Kicad,Pcbnew,8.0.6
; #@! TF.FileFunction,Plated,1,2,PTH
FMAT,2
INCH
; #@! TA.AperFunction,Plated,PTH,ViaDrill
T1C0.0118
; #@! TA.AperFunction,Plated,PTH,ComponentDrill
T2C0.0197
; #@! TA.AperFunction,Plated,PTH,ComponentDrill
T3C0.0236
; #@! TA.AperFunction,Plated,PTH,ComponentDrill
T4C0.0315
%
G90
G05
T1
X3.0Y-3.45
T2
X2.775Y-3.85
X2.8498Y-3.85
X2.925Y-3.85
T3
X2.5Y-3.0
X2.5Y-4.0
X3.1Y-2.9
X3.1Y-3.0
T4
X2.5Y-3.7
X2.5Y-3.8
X2.65Y-3.0
X2.65Y-3.1
X2.65Y-3.2
X2.65Y-3.3
X2.65Y-3.4
X2.65Y-3.5
X2.65Y-3.6
X2.65Y-3.7
X2.65Y-3.9
X2.65Y-4.0
X2.75Y-2.875
X2.775Y-4.0
X2.8484Y-2.875
X2.875Y-4.0
X2.95Y-3.0
X2.95Y-3.1
X2.95Y-3.2
X2.95Y-3.3
X2.95Y-3.4
X2.95Y-3.5
X2.95Y-3.6
X2.95Y-3.7
X3.0Y-3.9
X3.0Y-3.9984
X3.1Y-3.6
X3.1Y-3.7
X3.1Y-3.8
X3.1Y-3.9
X3.1Y-3.9984
M30
