%TF.GenerationSoftware,KiCad,Pcbnew,8.0.6*%
%TF.CreationDate,2024-11-20T20:55:38+11:00*%
%TF.ProjectId,clock-divider,636c6f63-6b2d-4646-9976-696465722e6b,1*%
%TF.SameCoordinates,Original*%
%TF.FileFunction,Legend,Bot*%
%TF.FilePolarity,Positive*%
%FSLAX46Y46*%
G04 Gerber Fmt 4.6, Leading zero omitted, Abs format (unit mm)*
G04 Created by KiCad (PCBNEW 8.0.6) date 2024-11-20 20:55:38*
%MOMM*%
%LPD*%
G01*
G04 APERTURE LIST*
%ADD10C,0.100000*%
%ADD11C,0.120000*%
G04 APERTURE END LIST*
D10*
X72387782Y-86091895D02*
X72768734Y-86091895D01*
X72768734Y-86091895D02*
X72806830Y-86472847D01*
X72806830Y-86472847D02*
X72768734Y-86434752D01*
X72768734Y-86434752D02*
X72692544Y-86396657D01*
X72692544Y-86396657D02*
X72502068Y-86396657D01*
X72502068Y-86396657D02*
X72425877Y-86434752D01*
X72425877Y-86434752D02*
X72387782Y-86472847D01*
X72387782Y-86472847D02*
X72349687Y-86549038D01*
X72349687Y-86549038D02*
X72349687Y-86739514D01*
X72349687Y-86739514D02*
X72387782Y-86815704D01*
X72387782Y-86815704D02*
X72425877Y-86853800D01*
X72425877Y-86853800D02*
X72502068Y-86891895D01*
X72502068Y-86891895D02*
X72692544Y-86891895D01*
X72692544Y-86891895D02*
X72768734Y-86853800D01*
X72768734Y-86853800D02*
X72806830Y-86815704D01*
X72425877Y-91438561D02*
X72425877Y-91971895D01*
X72616353Y-91133800D02*
X72806830Y-91705228D01*
X72806830Y-91705228D02*
X72311591Y-91705228D01*
X61554687Y-101369990D02*
X61630877Y-101331895D01*
X61630877Y-101331895D02*
X61745163Y-101331895D01*
X61745163Y-101331895D02*
X61859449Y-101369990D01*
X61859449Y-101369990D02*
X61935639Y-101446180D01*
X61935639Y-101446180D02*
X61973734Y-101522371D01*
X61973734Y-101522371D02*
X62011830Y-101674752D01*
X62011830Y-101674752D02*
X62011830Y-101789038D01*
X62011830Y-101789038D02*
X61973734Y-101941419D01*
X61973734Y-101941419D02*
X61935639Y-102017609D01*
X61935639Y-102017609D02*
X61859449Y-102093800D01*
X61859449Y-102093800D02*
X61745163Y-102131895D01*
X61745163Y-102131895D02*
X61668972Y-102131895D01*
X61668972Y-102131895D02*
X61554687Y-102093800D01*
X61554687Y-102093800D02*
X61516591Y-102055704D01*
X61516591Y-102055704D02*
X61516591Y-101789038D01*
X61516591Y-101789038D02*
X61668972Y-101789038D01*
X72425877Y-83551895D02*
X72578258Y-83551895D01*
X72578258Y-83551895D02*
X72654449Y-83589990D01*
X72654449Y-83589990D02*
X72692544Y-83628085D01*
X72692544Y-83628085D02*
X72768734Y-83742371D01*
X72768734Y-83742371D02*
X72806830Y-83894752D01*
X72806830Y-83894752D02*
X72806830Y-84199514D01*
X72806830Y-84199514D02*
X72768734Y-84275704D01*
X72768734Y-84275704D02*
X72730639Y-84313800D01*
X72730639Y-84313800D02*
X72654449Y-84351895D01*
X72654449Y-84351895D02*
X72502068Y-84351895D01*
X72502068Y-84351895D02*
X72425877Y-84313800D01*
X72425877Y-84313800D02*
X72387782Y-84275704D01*
X72387782Y-84275704D02*
X72349687Y-84199514D01*
X72349687Y-84199514D02*
X72349687Y-84009038D01*
X72349687Y-84009038D02*
X72387782Y-83932847D01*
X72387782Y-83932847D02*
X72425877Y-83894752D01*
X72425877Y-83894752D02*
X72502068Y-83856657D01*
X72502068Y-83856657D02*
X72654449Y-83856657D01*
X72654449Y-83856657D02*
X72730639Y-83894752D01*
X72730639Y-83894752D02*
X72768734Y-83932847D01*
X72768734Y-83932847D02*
X72806830Y-84009038D01*
X72844925Y-88631895D02*
X72311591Y-88631895D01*
X72311591Y-88631895D02*
X72654449Y-89431895D01*
X79829925Y-86726895D02*
X79296591Y-87526895D01*
X79296591Y-86726895D02*
X79829925Y-87526895D01*
X80604687Y-79271895D02*
X81061830Y-79271895D01*
X80833258Y-79271895D02*
X80833258Y-78471895D01*
X80833258Y-78471895D02*
X80909449Y-78586180D01*
X80909449Y-78586180D02*
X80985639Y-78662371D01*
X80985639Y-78662371D02*
X81061830Y-78700466D01*
X80109448Y-78471895D02*
X80033258Y-78471895D01*
X80033258Y-78471895D02*
X79957067Y-78509990D01*
X79957067Y-78509990D02*
X79918972Y-78548085D01*
X79918972Y-78548085D02*
X79880877Y-78624276D01*
X79880877Y-78624276D02*
X79842782Y-78776657D01*
X79842782Y-78776657D02*
X79842782Y-78967133D01*
X79842782Y-78967133D02*
X79880877Y-79119514D01*
X79880877Y-79119514D02*
X79918972Y-79195704D01*
X79918972Y-79195704D02*
X79957067Y-79233800D01*
X79957067Y-79233800D02*
X80033258Y-79271895D01*
X80033258Y-79271895D02*
X80109448Y-79271895D01*
X80109448Y-79271895D02*
X80185639Y-79233800D01*
X80185639Y-79233800D02*
X80223734Y-79195704D01*
X80223734Y-79195704D02*
X80261829Y-79119514D01*
X80261829Y-79119514D02*
X80299925Y-78967133D01*
X80299925Y-78967133D02*
X80299925Y-78776657D01*
X80299925Y-78776657D02*
X80261829Y-78624276D01*
X80261829Y-78624276D02*
X80223734Y-78548085D01*
X80223734Y-78548085D02*
X80185639Y-78509990D01*
X80185639Y-78509990D02*
X80109448Y-78471895D01*
X63912180Y-79615312D02*
X63959800Y-79567693D01*
X63959800Y-79567693D02*
X64007419Y-79424836D01*
X64007419Y-79424836D02*
X64007419Y-79329598D01*
X64007419Y-79329598D02*
X63959800Y-79186741D01*
X63959800Y-79186741D02*
X63864561Y-79091503D01*
X63864561Y-79091503D02*
X63769323Y-79043884D01*
X63769323Y-79043884D02*
X63578847Y-78996265D01*
X63578847Y-78996265D02*
X63435990Y-78996265D01*
X63435990Y-78996265D02*
X63245514Y-79043884D01*
X63245514Y-79043884D02*
X63150276Y-79091503D01*
X63150276Y-79091503D02*
X63055038Y-79186741D01*
X63055038Y-79186741D02*
X63007419Y-79329598D01*
X63007419Y-79329598D02*
X63007419Y-79424836D01*
X63007419Y-79424836D02*
X63055038Y-79567693D01*
X63055038Y-79567693D02*
X63102657Y-79615312D01*
X64007419Y-80186741D02*
X63959800Y-80091503D01*
X63959800Y-80091503D02*
X63864561Y-80043884D01*
X63864561Y-80043884D02*
X63007419Y-80043884D01*
X64007419Y-80710551D02*
X63959800Y-80615313D01*
X63959800Y-80615313D02*
X63912180Y-80567694D01*
X63912180Y-80567694D02*
X63816942Y-80520075D01*
X63816942Y-80520075D02*
X63531228Y-80520075D01*
X63531228Y-80520075D02*
X63435990Y-80567694D01*
X63435990Y-80567694D02*
X63388371Y-80615313D01*
X63388371Y-80615313D02*
X63340752Y-80710551D01*
X63340752Y-80710551D02*
X63340752Y-80853408D01*
X63340752Y-80853408D02*
X63388371Y-80948646D01*
X63388371Y-80948646D02*
X63435990Y-80996265D01*
X63435990Y-80996265D02*
X63531228Y-81043884D01*
X63531228Y-81043884D02*
X63816942Y-81043884D01*
X63816942Y-81043884D02*
X63912180Y-80996265D01*
X63912180Y-80996265D02*
X63959800Y-80948646D01*
X63959800Y-80948646D02*
X64007419Y-80853408D01*
X64007419Y-80853408D02*
X64007419Y-80710551D01*
X63959800Y-81901027D02*
X64007419Y-81805789D01*
X64007419Y-81805789D02*
X64007419Y-81615313D01*
X64007419Y-81615313D02*
X63959800Y-81520075D01*
X63959800Y-81520075D02*
X63912180Y-81472456D01*
X63912180Y-81472456D02*
X63816942Y-81424837D01*
X63816942Y-81424837D02*
X63531228Y-81424837D01*
X63531228Y-81424837D02*
X63435990Y-81472456D01*
X63435990Y-81472456D02*
X63388371Y-81520075D01*
X63388371Y-81520075D02*
X63340752Y-81615313D01*
X63340752Y-81615313D02*
X63340752Y-81805789D01*
X63340752Y-81805789D02*
X63388371Y-81901027D01*
X64007419Y-82329599D02*
X63007419Y-82329599D01*
X63626466Y-82424837D02*
X64007419Y-82710551D01*
X63340752Y-82710551D02*
X63721704Y-82329599D01*
X64007419Y-84329599D02*
X63007419Y-84329599D01*
X63959800Y-84329599D02*
X64007419Y-84234361D01*
X64007419Y-84234361D02*
X64007419Y-84043885D01*
X64007419Y-84043885D02*
X63959800Y-83948647D01*
X63959800Y-83948647D02*
X63912180Y-83901028D01*
X63912180Y-83901028D02*
X63816942Y-83853409D01*
X63816942Y-83853409D02*
X63531228Y-83853409D01*
X63531228Y-83853409D02*
X63435990Y-83901028D01*
X63435990Y-83901028D02*
X63388371Y-83948647D01*
X63388371Y-83948647D02*
X63340752Y-84043885D01*
X63340752Y-84043885D02*
X63340752Y-84234361D01*
X63340752Y-84234361D02*
X63388371Y-84329599D01*
X64007419Y-84805790D02*
X63340752Y-84805790D01*
X63007419Y-84805790D02*
X63055038Y-84758171D01*
X63055038Y-84758171D02*
X63102657Y-84805790D01*
X63102657Y-84805790D02*
X63055038Y-84853409D01*
X63055038Y-84853409D02*
X63007419Y-84805790D01*
X63007419Y-84805790D02*
X63102657Y-84805790D01*
X63340752Y-85186742D02*
X64007419Y-85424837D01*
X64007419Y-85424837D02*
X63340752Y-85662932D01*
X64007419Y-86043885D02*
X63340752Y-86043885D01*
X63007419Y-86043885D02*
X63055038Y-85996266D01*
X63055038Y-85996266D02*
X63102657Y-86043885D01*
X63102657Y-86043885D02*
X63055038Y-86091504D01*
X63055038Y-86091504D02*
X63007419Y-86043885D01*
X63007419Y-86043885D02*
X63102657Y-86043885D01*
X64007419Y-86948646D02*
X63007419Y-86948646D01*
X63959800Y-86948646D02*
X64007419Y-86853408D01*
X64007419Y-86853408D02*
X64007419Y-86662932D01*
X64007419Y-86662932D02*
X63959800Y-86567694D01*
X63959800Y-86567694D02*
X63912180Y-86520075D01*
X63912180Y-86520075D02*
X63816942Y-86472456D01*
X63816942Y-86472456D02*
X63531228Y-86472456D01*
X63531228Y-86472456D02*
X63435990Y-86520075D01*
X63435990Y-86520075D02*
X63388371Y-86567694D01*
X63388371Y-86567694D02*
X63340752Y-86662932D01*
X63340752Y-86662932D02*
X63340752Y-86853408D01*
X63340752Y-86853408D02*
X63388371Y-86948646D01*
X63959800Y-87805789D02*
X64007419Y-87710551D01*
X64007419Y-87710551D02*
X64007419Y-87520075D01*
X64007419Y-87520075D02*
X63959800Y-87424837D01*
X63959800Y-87424837D02*
X63864561Y-87377218D01*
X63864561Y-87377218D02*
X63483609Y-87377218D01*
X63483609Y-87377218D02*
X63388371Y-87424837D01*
X63388371Y-87424837D02*
X63340752Y-87520075D01*
X63340752Y-87520075D02*
X63340752Y-87710551D01*
X63340752Y-87710551D02*
X63388371Y-87805789D01*
X63388371Y-87805789D02*
X63483609Y-87853408D01*
X63483609Y-87853408D02*
X63578847Y-87853408D01*
X63578847Y-87853408D02*
X63674085Y-87377218D01*
X64007419Y-88281980D02*
X63340752Y-88281980D01*
X63531228Y-88281980D02*
X63435990Y-88329599D01*
X63435990Y-88329599D02*
X63388371Y-88377218D01*
X63388371Y-88377218D02*
X63340752Y-88472456D01*
X63340752Y-88472456D02*
X63340752Y-88567694D01*
X80350639Y-84351895D02*
X80198258Y-84351895D01*
X80198258Y-84351895D02*
X80122068Y-84313800D01*
X80122068Y-84313800D02*
X80083972Y-84275704D01*
X80083972Y-84275704D02*
X80007782Y-84161419D01*
X80007782Y-84161419D02*
X79969687Y-84009038D01*
X79969687Y-84009038D02*
X79969687Y-83704276D01*
X79969687Y-83704276D02*
X80007782Y-83628085D01*
X80007782Y-83628085D02*
X80045877Y-83589990D01*
X80045877Y-83589990D02*
X80122068Y-83551895D01*
X80122068Y-83551895D02*
X80274449Y-83551895D01*
X80274449Y-83551895D02*
X80350639Y-83589990D01*
X80350639Y-83589990D02*
X80388734Y-83628085D01*
X80388734Y-83628085D02*
X80426830Y-83704276D01*
X80426830Y-83704276D02*
X80426830Y-83894752D01*
X80426830Y-83894752D02*
X80388734Y-83970942D01*
X80388734Y-83970942D02*
X80350639Y-84009038D01*
X80350639Y-84009038D02*
X80274449Y-84047133D01*
X80274449Y-84047133D02*
X80122068Y-84047133D01*
X80122068Y-84047133D02*
X80045877Y-84009038D01*
X80045877Y-84009038D02*
X80007782Y-83970942D01*
X80007782Y-83970942D02*
X79969687Y-83894752D01*
X72984687Y-81811895D02*
X73441830Y-81811895D01*
X73213258Y-81811895D02*
X73213258Y-81011895D01*
X73213258Y-81011895D02*
X73289449Y-81126180D01*
X73289449Y-81126180D02*
X73365639Y-81202371D01*
X73365639Y-81202371D02*
X73441830Y-81240466D01*
X72298972Y-81278561D02*
X72298972Y-81811895D01*
X72489448Y-80973800D02*
X72679925Y-81545228D01*
X72679925Y-81545228D02*
X72184686Y-81545228D01*
X80236353Y-75931895D02*
X80083972Y-75931895D01*
X80083972Y-75931895D02*
X80007782Y-75969990D01*
X80007782Y-75969990D02*
X79931591Y-76046180D01*
X79931591Y-76046180D02*
X79893496Y-76198561D01*
X79893496Y-76198561D02*
X79893496Y-76465228D01*
X79893496Y-76465228D02*
X79931591Y-76617609D01*
X79931591Y-76617609D02*
X80007782Y-76693800D01*
X80007782Y-76693800D02*
X80083972Y-76731895D01*
X80083972Y-76731895D02*
X80236353Y-76731895D01*
X80236353Y-76731895D02*
X80312544Y-76693800D01*
X80312544Y-76693800D02*
X80388734Y-76617609D01*
X80388734Y-76617609D02*
X80426830Y-76465228D01*
X80426830Y-76465228D02*
X80426830Y-76198561D01*
X80426830Y-76198561D02*
X80388734Y-76046180D01*
X80388734Y-76046180D02*
X80312544Y-75969990D01*
X80312544Y-75969990D02*
X80236353Y-75931895D01*
X72984687Y-79271895D02*
X73441830Y-79271895D01*
X73213258Y-79271895D02*
X73213258Y-78471895D01*
X73213258Y-78471895D02*
X73289449Y-78586180D01*
X73289449Y-78586180D02*
X73365639Y-78662371D01*
X73365639Y-78662371D02*
X73441830Y-78700466D01*
X72718020Y-78471895D02*
X72222782Y-78471895D01*
X72222782Y-78471895D02*
X72489448Y-78776657D01*
X72489448Y-78776657D02*
X72375163Y-78776657D01*
X72375163Y-78776657D02*
X72298972Y-78814752D01*
X72298972Y-78814752D02*
X72260877Y-78852847D01*
X72260877Y-78852847D02*
X72222782Y-78929038D01*
X72222782Y-78929038D02*
X72222782Y-79119514D01*
X72222782Y-79119514D02*
X72260877Y-79195704D01*
X72260877Y-79195704D02*
X72298972Y-79233800D01*
X72298972Y-79233800D02*
X72375163Y-79271895D01*
X72375163Y-79271895D02*
X72603734Y-79271895D01*
X72603734Y-79271895D02*
X72679925Y-79233800D01*
X72679925Y-79233800D02*
X72718020Y-79195704D01*
X72984687Y-76731895D02*
X73441830Y-76731895D01*
X73213258Y-76731895D02*
X73213258Y-75931895D01*
X73213258Y-75931895D02*
X73289449Y-76046180D01*
X73289449Y-76046180D02*
X73365639Y-76122371D01*
X73365639Y-76122371D02*
X73441830Y-76160466D01*
X72679925Y-76008085D02*
X72641829Y-75969990D01*
X72641829Y-75969990D02*
X72565639Y-75931895D01*
X72565639Y-75931895D02*
X72375163Y-75931895D01*
X72375163Y-75931895D02*
X72298972Y-75969990D01*
X72298972Y-75969990D02*
X72260877Y-76008085D01*
X72260877Y-76008085D02*
X72222782Y-76084276D01*
X72222782Y-76084276D02*
X72222782Y-76160466D01*
X72222782Y-76160466D02*
X72260877Y-76274752D01*
X72260877Y-76274752D02*
X72718020Y-76731895D01*
X72718020Y-76731895D02*
X72222782Y-76731895D01*
X81023734Y-73887133D02*
X80414211Y-73887133D01*
X80718972Y-74191895D02*
X80718972Y-73582371D01*
X79652306Y-73391895D02*
X80033258Y-73391895D01*
X80033258Y-73391895D02*
X80071354Y-73772847D01*
X80071354Y-73772847D02*
X80033258Y-73734752D01*
X80033258Y-73734752D02*
X79957068Y-73696657D01*
X79957068Y-73696657D02*
X79766592Y-73696657D01*
X79766592Y-73696657D02*
X79690401Y-73734752D01*
X79690401Y-73734752D02*
X79652306Y-73772847D01*
X79652306Y-73772847D02*
X79614211Y-73849038D01*
X79614211Y-73849038D02*
X79614211Y-74039514D01*
X79614211Y-74039514D02*
X79652306Y-74115704D01*
X79652306Y-74115704D02*
X79690401Y-74153800D01*
X79690401Y-74153800D02*
X79766592Y-74191895D01*
X79766592Y-74191895D02*
X79957068Y-74191895D01*
X79957068Y-74191895D02*
X80033258Y-74153800D01*
X80033258Y-74153800D02*
X80071354Y-74115704D01*
X80274449Y-81354752D02*
X80350639Y-81316657D01*
X80350639Y-81316657D02*
X80388734Y-81278561D01*
X80388734Y-81278561D02*
X80426830Y-81202371D01*
X80426830Y-81202371D02*
X80426830Y-81164276D01*
X80426830Y-81164276D02*
X80388734Y-81088085D01*
X80388734Y-81088085D02*
X80350639Y-81049990D01*
X80350639Y-81049990D02*
X80274449Y-81011895D01*
X80274449Y-81011895D02*
X80122068Y-81011895D01*
X80122068Y-81011895D02*
X80045877Y-81049990D01*
X80045877Y-81049990D02*
X80007782Y-81088085D01*
X80007782Y-81088085D02*
X79969687Y-81164276D01*
X79969687Y-81164276D02*
X79969687Y-81202371D01*
X79969687Y-81202371D02*
X80007782Y-81278561D01*
X80007782Y-81278561D02*
X80045877Y-81316657D01*
X80045877Y-81316657D02*
X80122068Y-81354752D01*
X80122068Y-81354752D02*
X80274449Y-81354752D01*
X80274449Y-81354752D02*
X80350639Y-81392847D01*
X80350639Y-81392847D02*
X80388734Y-81430942D01*
X80388734Y-81430942D02*
X80426830Y-81507133D01*
X80426830Y-81507133D02*
X80426830Y-81659514D01*
X80426830Y-81659514D02*
X80388734Y-81735704D01*
X80388734Y-81735704D02*
X80350639Y-81773800D01*
X80350639Y-81773800D02*
X80274449Y-81811895D01*
X80274449Y-81811895D02*
X80122068Y-81811895D01*
X80122068Y-81811895D02*
X80045877Y-81773800D01*
X80045877Y-81773800D02*
X80007782Y-81735704D01*
X80007782Y-81735704D02*
X79969687Y-81659514D01*
X79969687Y-81659514D02*
X79969687Y-81507133D01*
X79969687Y-81507133D02*
X80007782Y-81430942D01*
X80007782Y-81430942D02*
X80045877Y-81392847D01*
X80045877Y-81392847D02*
X80122068Y-81354752D01*
X61973734Y-76731895D02*
X61973734Y-75931895D01*
D11*
%TO.C,JP5*%
X76545000Y-80280000D02*
X79345000Y-80280000D01*
X76545000Y-82280000D02*
X76545000Y-80280000D01*
X79345000Y-80280000D02*
X79345000Y-82280000D01*
X79345000Y-82280000D02*
X76545000Y-82280000D01*
%TO.C,JP11*%
X76470000Y-86775000D02*
X78470000Y-86775000D01*
X76470000Y-89575000D02*
X76470000Y-86775000D01*
X78470000Y-86775000D02*
X78470000Y-89575000D01*
X78470000Y-89575000D02*
X76470000Y-89575000D01*
%TO.C,JP9*%
X68925000Y-77740000D02*
X71725000Y-77740000D01*
X68925000Y-79740000D02*
X68925000Y-77740000D01*
X71725000Y-77740000D02*
X71725000Y-79740000D01*
X71725000Y-79740000D02*
X68925000Y-79740000D01*
%TO.C,JP4*%
X68925000Y-87900000D02*
X71725000Y-87900000D01*
X68925000Y-89900000D02*
X68925000Y-87900000D01*
X71725000Y-87900000D02*
X71725000Y-89900000D01*
X71725000Y-89900000D02*
X68925000Y-89900000D01*
%TO.C,JP1*%
X68925000Y-90490000D02*
X71725000Y-90490000D01*
X68925000Y-92490000D02*
X68925000Y-90490000D01*
X71725000Y-90490000D02*
X71725000Y-92490000D01*
X71725000Y-92490000D02*
X68925000Y-92490000D01*
%TO.C,JP3*%
X68925000Y-82820000D02*
X71725000Y-82820000D01*
X68925000Y-84820000D02*
X68925000Y-82820000D01*
X71725000Y-82820000D02*
X71725000Y-84820000D01*
X71725000Y-84820000D02*
X68925000Y-84820000D01*
%TO.C,JP8*%
X68925000Y-75200000D02*
X71725000Y-75200000D01*
X68925000Y-77200000D02*
X68925000Y-75200000D01*
X71725000Y-75200000D02*
X71725000Y-77200000D01*
X71725000Y-77200000D02*
X68925000Y-77200000D01*
%TO.C,JP10*%
X68925000Y-80280000D02*
X71725000Y-80280000D01*
X68925000Y-82280000D02*
X68925000Y-80280000D01*
X71725000Y-80280000D02*
X71725000Y-82280000D01*
X71725000Y-82280000D02*
X68925000Y-82280000D01*
%TO.C,JP2*%
X68925000Y-85360000D02*
X71725000Y-85360000D01*
X68925000Y-87360000D02*
X68925000Y-85360000D01*
X71725000Y-85360000D02*
X71725000Y-87360000D01*
X71725000Y-87360000D02*
X68925000Y-87360000D01*
%TO.C,JP6*%
X76545000Y-82820000D02*
X79345000Y-82820000D01*
X76545000Y-84820000D02*
X76545000Y-82820000D01*
X79345000Y-82820000D02*
X79345000Y-84820000D01*
X79345000Y-84820000D02*
X76545000Y-84820000D01*
%TO.C,JP7*%
X76545000Y-77740000D02*
X79345000Y-77740000D01*
X76545000Y-79740000D02*
X76545000Y-77740000D01*
X79345000Y-77740000D02*
X79345000Y-79740000D01*
X79345000Y-79740000D02*
X76545000Y-79740000D01*
%TD*%
M02*
